<svg width="222" height="221" viewBox="0 0 222 221" fill="none" xmlns="http://www.w3.org/2000/svg">
<circle cx="111" cy="110.5" r="110.5" fill="#FFBDAE" fill-opacity="0.1"/>
<path d="M134.914 103.748C134.914 103.748 127.806 99.5085 121.121 99.3293L124.434 110.018L135.155 117.662L134.914 103.748Z" fill="#E57E73"/>
<path d="M135.034 94.3817C135.034 94.3817 129.596 92.0502 123.864 91.3945L124.305 100.793C124.305 100.793 131.36 102.032 135.769 105.456L135.034 94.3817Z" fill="#EFA18F"/>
<path d="M135.034 94.3816C135.034 94.3816 133.017 93.5166 130.144 92.6921C130.693 94.0228 132.422 98.2279 132.926 99.628C133.391 100.919 133.569 101.89 133.626 104.052C134.378 104.472 135.104 104.939 135.769 105.456L135.034 94.3816Z" fill="#E57E73"/>
<path d="M134.781 137.08C134.781 137.08 140.225 140.803 144.046 147.649C147.866 154.496 156.301 175.475 156.301 175.475H177.5V148.176C177.5 148.176 158.151 130.752 154.918 124.779C151.686 118.807 149.482 108.901 147.278 103.803C145.074 98.7043 142.723 91.8578 141.842 90.5468C140.96 89.2358 134.348 77.8736 121.418 75.3972C121.418 75.3972 117.745 75.8342 118.039 78.0193C118.333 80.2043 124.357 83.409 125.826 83.846C125.826 83.846 130.675 89.0901 131.704 90.9838C132.732 92.8775 133.907 98.1216 134.201 99.4326C134.495 100.744 133.32 105.551 133.907 109.921C134.495 114.291 133.165 131.981 134.781 137.08Z" fill="#F6AF9A"/>
<path d="M125.816 83.8406C125.88 83.6779 125.957 83.521 126.038 83.3657C126.08 83.2887 126.122 83.2118 126.167 83.1363C126.212 83.0607 126.26 82.9871 126.308 82.9131C126.333 82.8764 126.357 82.8396 126.381 82.8021C126.405 82.7647 126.43 82.7283 126.455 82.6913L126.494 82.6371C126.508 82.6197 126.522 82.6026 126.537 82.5859C126.566 82.5526 126.597 82.5199 126.63 82.4896C126.697 82.43 126.766 82.3728 126.843 82.3249C126.918 82.2747 127.003 82.2353 127.09 82.2053C127.097 82.203 127.104 82.2065 127.106 82.2131C127.108 82.2165 127.107 82.2201 127.106 82.2231C127.061 82.3071 127.009 82.3751 126.96 82.4475C126.909 82.5164 126.86 82.5862 126.807 82.6515C126.78 82.6846 126.754 82.7181 126.726 82.7493C126.698 82.7806 126.668 82.8108 126.639 82.8418C126.609 82.8721 126.578 82.9016 126.549 82.9327C126.519 82.9638 126.491 82.9956 126.462 83.0277C126.407 83.0931 126.352 83.1584 126.299 83.2263C126.245 83.2927 126.192 83.361 126.14 83.4297C126.035 83.5668 125.934 83.7078 125.837 83.8514C125.833 83.8572 125.826 83.8587 125.82 83.855C125.815 83.8518 125.814 83.8458 125.816 83.8406Z" fill="#E57E73"/>
<path d="M131.696 90.9743C131.765 90.9137 131.839 90.8605 131.915 90.81C131.99 90.7589 132.069 90.7126 132.147 90.6668C132.227 90.6227 132.308 90.5799 132.39 90.5397C132.431 90.5193 132.473 90.5012 132.514 90.4823C132.556 90.4636 132.597 90.4443 132.64 90.4273C132.808 90.3559 132.974 90.2725 133.155 90.2404C133.245 90.2225 133.336 90.2126 133.428 90.2059C133.521 90.2022 133.614 90.2034 133.709 90.2171C133.716 90.2181 133.721 90.2246 133.72 90.2316C133.719 90.2353 133.717 90.2384 133.714 90.2403C133.634 90.2938 133.551 90.3334 133.468 90.3701C133.386 90.4087 133.303 90.4401 133.219 90.4708C133.136 90.5024 133.05 90.5242 132.964 90.5447L132.834 90.5732C132.791 90.5838 132.748 90.5954 132.705 90.6073C132.662 90.6188 132.62 90.6326 132.578 90.6458C132.535 90.6592 132.493 90.6719 132.451 90.6869C132.366 90.7139 132.282 90.7437 132.199 90.7749C132.116 90.8063 132.033 90.8393 131.951 90.8755C131.87 90.9114 131.788 90.9495 131.711 90.9934C131.704 90.9971 131.697 90.9951 131.694 90.9893C131.691 90.9842 131.692 90.978 131.696 90.9743Z" fill="#E57E73"/>
<path d="M133.782 107.557C133.99 107.494 134.199 107.438 134.409 107.385C134.62 107.333 134.831 107.284 135.044 107.238C135.256 107.193 135.47 107.152 135.684 107.115C135.898 107.079 136.113 107.046 136.329 107.017C136.545 106.99 136.762 106.962 136.979 106.94C137.197 106.92 137.416 106.911 137.635 106.917C137.854 106.924 138.073 106.941 138.29 106.973C138.507 107.005 138.723 107.05 138.931 107.12C138.938 107.122 138.941 107.129 138.939 107.135C138.937 107.14 138.932 107.143 138.927 107.143C138.708 107.142 138.493 107.139 138.279 107.141C138.064 107.142 137.85 107.15 137.636 107.156C137.422 107.164 137.208 107.172 136.994 107.177C136.779 107.181 136.564 107.191 136.35 107.208C136.135 107.225 135.921 107.247 135.707 107.272C135.493 107.296 135.279 107.324 135.065 107.356C134.638 107.416 134.212 107.492 133.788 107.58C133.782 107.582 133.775 107.577 133.774 107.571C133.772 107.565 133.776 107.559 133.782 107.557Z" fill="#E57E73"/>
<path d="M136.102 109.789C135.215 108.128 134.328 106.678 133.775 105.804C133.712 107.138 133.723 108.551 133.907 109.921C134.216 112.212 133.997 118.165 133.951 124.045C139.539 125.228 144.576 124.503 143.571 120.937C142.045 115.522 137.547 112.497 136.102 109.789Z" fill="#E57E73"/>
<path d="M45.5 138.694C45.5 138.694 68.3246 115.783 73.4192 108.013C78.5137 100.242 86.5626 81.5321 92.3138 75.437L95.5609 124.137C95.5609 124.137 91.4461 129.188 85.1759 131.713C78.9057 134.238 65.167 175.475 65.167 175.475H45.5V138.694Z" fill="#F6AF9A"/>
<path d="M93.4782 99.7507C82.692 102.839 73.4192 112.675 73.4192 112.675C73.4192 112.675 68.3411 130.332 78.5409 130.253C88.7407 130.173 92.676 119.981 93.0776 118.389C93.23 117.784 93.9841 116.859 94.8611 115.943L93.4782 99.7507Z" fill="#E57E73"/>
<path d="M98.1619 141.321C98.1619 141.321 99.7483 147.298 99.8541 151.597C99.9599 155.896 97.2101 160.195 100.171 161.873C103.133 163.55 108.315 163.76 111.17 162.711L98.1619 141.321Z" fill="#8C4949"/>
<path d="M101.169 146.267C101.338 147.934 101.455 150.66 101.017 154.009C100.277 159.671 99.6426 161.034 103.45 161.453C106.252 161.762 108.881 161.219 110.075 160.91L101.169 146.267Z" fill="#844242"/>
<path d="M103.344 148.556C103.36 148.656 103.373 148.756 103.387 148.856C103.4 148.956 103.413 149.057 103.425 149.157C103.449 149.358 103.471 149.558 103.491 149.76C103.497 149.819 103.454 149.872 103.394 149.878C103.334 149.884 103.281 149.841 103.275 149.781C103.274 149.776 103.274 149.772 103.274 149.767L103.274 149.764C103.282 149.564 103.291 149.362 103.302 149.161C103.308 149.061 103.314 148.96 103.321 148.859C103.329 148.758 103.335 148.657 103.344 148.556Z" fill="#8C4949"/>
<path d="M103.578 150.967C103.587 151.169 103.593 151.37 103.601 151.572C103.606 151.773 103.613 151.975 103.617 152.177C103.62 152.296 103.524 152.395 103.404 152.398C103.283 152.4 103.184 152.305 103.181 152.185C103.181 152.183 103.181 152.18 103.181 152.177L103.181 152.173C103.186 151.972 103.193 151.772 103.199 151.571C103.207 151.371 103.214 151.17 103.224 150.969L103.224 150.967C103.228 150.87 103.312 150.795 103.409 150.8C103.501 150.804 103.573 150.878 103.578 150.967Z" fill="#8C4949"/>
<path d="M103.613 153.387C103.606 153.589 103.601 153.791 103.591 153.993C103.582 154.194 103.576 154.396 103.565 154.598C103.558 154.726 103.448 154.824 103.319 154.817C103.193 154.81 103.096 154.705 103.098 154.581L103.098 154.575C103.103 154.375 103.111 154.175 103.117 153.975C103.123 153.775 103.134 153.575 103.142 153.375L103.142 153.37C103.147 153.241 103.257 153.14 103.387 153.145C103.517 153.15 103.618 153.258 103.613 153.387Z" fill="#8C4949"/>
<path d="M103.465 155.806L103.428 156.108L103.388 156.409C103.363 156.61 103.333 156.81 103.305 157.01C103.293 157.098 103.211 157.159 103.122 157.147C103.039 157.136 102.979 157.063 102.983 156.981L102.983 156.974C102.993 156.774 103.001 156.574 103.012 156.374L103.029 156.074L103.048 155.775L103.048 155.768C103.055 155.653 103.155 155.566 103.27 155.573C103.386 155.581 103.474 155.679 103.467 155.794C103.466 155.798 103.466 155.803 103.465 155.806Z" fill="#8C4949"/>
<path d="M103.063 158.201C103.028 158.343 102.99 158.484 102.949 158.624C102.929 158.694 102.907 158.764 102.885 158.834C102.863 158.903 102.84 158.973 102.815 159.041L102.838 158.824L102.858 158.607C102.872 158.463 102.885 158.318 102.897 158.174C102.901 158.128 102.942 158.094 102.988 158.098C103.035 158.102 103.069 158.142 103.065 158.188C103.065 158.193 103.064 158.197 103.063 158.201Z" fill="#8C4949"/>
<path d="M106.623 154.847C106.644 154.948 106.661 155.049 106.677 155.149C106.693 155.25 106.707 155.351 106.719 155.451C106.732 155.552 106.743 155.653 106.753 155.754C106.762 155.855 106.773 155.956 106.78 156.057C106.786 156.149 106.716 156.23 106.623 156.236C106.529 156.243 106.448 156.173 106.442 156.08C106.441 156.071 106.441 156.063 106.442 156.054L106.442 156.051C106.451 155.951 106.464 155.851 106.475 155.751C106.487 155.65 106.5 155.55 106.515 155.45C106.529 155.349 106.545 155.249 106.562 155.149C106.581 155.048 106.599 154.948 106.623 154.847Z" fill="#8C4949"/>
<path d="M106.815 157.267C106.814 157.368 106.81 157.469 106.807 157.57C106.804 157.671 106.799 157.772 106.794 157.873C106.789 157.973 106.784 158.074 106.777 158.175C106.77 158.276 106.764 158.377 106.755 158.477C106.744 158.599 106.636 158.689 106.513 158.678C106.398 158.668 106.311 158.573 106.31 158.46V158.453C106.309 158.353 106.311 158.253 106.313 158.153C106.314 158.053 106.318 157.953 106.321 157.853C106.324 157.753 106.328 157.653 106.333 157.553C106.339 157.453 106.343 157.353 106.35 157.253L106.35 157.248C106.36 157.121 106.471 157.025 106.599 157.034C106.723 157.043 106.816 157.146 106.815 157.267Z" fill="#8C4949"/>
<path d="M106.574 159.682C106.543 159.823 106.508 159.964 106.465 160.103C106.422 160.241 106.373 160.38 106.306 160.51C106.312 160.364 106.312 160.223 106.312 160.08L106.308 159.655C106.308 159.581 106.368 159.521 106.442 159.52C106.516 159.519 106.577 159.579 106.578 159.653C106.578 159.663 106.577 159.672 106.575 159.682L106.574 159.682Z" fill="#8C4949"/>
<path d="M94.9065 69.7462C94.9065 69.7462 96.013 63.6642 95.7768 59.3703C95.5406 55.0764 92.4577 51.0056 95.2764 49.1018C98.0952 47.198 103.245 46.5842 106.175 47.4064L94.9065 69.7462Z" fill="#8C4949"/>
<path d="M97.5117 64.5814C97.5474 62.9055 97.4476 60.1797 96.7449 56.8753C95.5569 51.2887 94.816 49.9793 98.5782 49.2638C101.347 48.7373 104.011 49.0732 105.226 49.2874L97.5117 64.5814Z" fill="#844242"/>
<path d="M99.4977 62.1291C99.4803 62.0291 99.4662 61.9291 99.4505 61.8291C99.4356 61.7291 99.4212 61.6292 99.4079 61.5293C99.3806 61.3295 99.3554 61.1298 99.332 60.9302L99.3317 60.9282C99.3248 60.8689 99.3676 60.8153 99.4273 60.8084C99.4871 60.8015 99.5412 60.8439 99.5481 60.9032C99.5487 60.908 99.5489 60.9133 99.5488 60.918C99.5445 61.12 99.5384 61.322 99.5302 61.5239C99.5264 61.6249 99.5215 61.7258 99.5162 61.8266C99.5101 61.9275 99.5055 62.0283 99.4977 62.1291Z" fill="#8C4949"/>
<path d="M99.1857 59.7325C99.1599 59.5332 99.1374 59.3338 99.1134 59.1345C99.0916 58.9351 99.0683 58.7358 99.0479 58.5363L99.0475 58.5328C99.0354 58.4139 99.1227 58.3076 99.2425 58.2956C99.3624 58.2835 99.4694 58.3701 99.4816 58.4891C99.4819 58.4919 99.4822 58.4955 99.4823 58.4982C99.4943 58.6996 99.5034 58.9012 99.5141 59.1026C99.5224 59.3042 99.5323 59.5056 99.5389 59.7072C99.5421 59.8043 99.4654 59.8856 99.3676 59.8887C99.2757 59.8917 99.1979 59.8247 99.1861 59.7361L99.1857 59.7325Z" fill="#8C4949"/>
<path d="M98.9127 57.3413C98.889 57.1424 98.8628 56.9438 98.841 56.7447C98.8188 56.5457 98.7946 56.3469 98.7742 56.1476L98.7737 56.1425C98.7607 56.0152 98.8542 55.9015 98.9824 55.8886C99.1081 55.876 99.2206 55.9652 99.2373 56.0885C99.2641 56.2887 99.287 56.4893 99.3121 56.6897C99.3375 56.8901 99.3585 57.0909 99.3819 57.2915C99.3969 57.42 99.3041 57.5361 99.1747 57.551C99.0453 57.5659 98.9282 57.4738 98.9132 57.3454L98.9127 57.3413Z" fill="#8C4949"/>
<path d="M98.6283 54.9557L98.5857 54.6588L98.5455 54.3614C98.5179 54.1632 98.4942 53.9642 98.4687 53.7653L98.468 53.7592C98.4567 53.6711 98.5195 53.5906 98.6082 53.5794C98.6919 53.5688 98.7689 53.6243 98.7869 53.7044C98.8305 53.9018 98.876 54.099 98.9176 54.297L98.9812 54.594L99.0423 54.8916C99.0655 55.0043 98.9922 55.1142 98.8787 55.1371C98.7653 55.1601 98.6545 55.0874 98.6314 54.9748C98.6306 54.9709 98.6299 54.967 98.6293 54.9632L98.6283 54.9557Z" fill="#8C4949"/>
<path d="M98.2878 52.576C98.2639 52.4332 98.2398 52.2903 98.2146 52.1473L98.1766 51.9326L98.1373 51.7175C98.1673 51.7842 98.1954 51.8516 98.223 51.9192C98.2508 51.9868 98.278 52.0547 98.3036 52.1231C98.3555 52.2597 98.4047 52.3974 98.4507 52.5361C98.4653 52.5799 98.4413 52.6271 98.3972 52.6416C98.3531 52.656 98.3055 52.6323 98.2909 52.5885C98.2896 52.5845 98.2885 52.58 98.2878 52.576Z" fill="#8C4949"/>
<path d="M102.266 55.6011C102.235 55.5027 102.208 55.4041 102.182 55.3054C102.157 55.2067 102.133 55.1079 102.11 55.0091C102.088 54.9103 102.067 54.8113 102.047 54.7124C102.028 54.6134 102.007 54.5145 101.99 54.4153L101.99 54.4132C101.974 54.3216 102.037 54.2347 102.129 54.2192C102.221 54.2036 102.309 54.2653 102.324 54.3569C102.326 54.3655 102.327 54.375 102.327 54.3835C102.328 54.4846 102.325 54.586 102.324 54.6873C102.322 54.7886 102.319 54.89 102.314 54.9914C102.31 55.0929 102.304 55.1944 102.296 55.296C102.288 55.3976 102.28 55.4992 102.266 55.6011Z" fill="#8C4949"/>
<path d="M101.803 53.2245C101.788 53.1254 101.776 53.026 101.763 52.9268C101.749 52.8276 101.738 52.7281 101.727 52.6286C101.715 52.5292 101.704 52.4297 101.695 52.3299C101.685 52.2302 101.675 52.1306 101.668 52.0306L101.667 52.025C101.658 51.9032 101.75 51.7971 101.873 51.788C101.988 51.7794 102.09 51.8609 102.109 51.972C102.126 52.0716 102.14 52.1716 102.155 52.2716C102.17 52.3714 102.183 52.4716 102.196 52.5717C102.209 52.6719 102.222 52.7721 102.233 52.8725C102.244 52.9729 102.257 53.0731 102.266 53.1737C102.277 53.3008 102.183 53.4131 102.055 53.4246C101.932 53.4356 101.822 53.3495 101.804 53.23L101.803 53.2245Z" fill="#8C4949"/>
<path d="M101.571 50.8335L101.54 50.4091C101.53 50.2671 101.517 50.1258 101.5 49.9814C101.578 50.1052 101.637 50.2397 101.691 50.3744C101.745 50.5097 101.792 50.6469 101.834 50.7851C101.855 50.8559 101.815 50.9305 101.744 50.9519C101.673 50.9733 101.598 50.9334 101.576 50.8628C101.573 50.8533 101.571 50.843 101.571 50.8335Z" fill="#8C4949"/>
<path d="M106.782 44.6149C106.782 44.6149 104.958 44.6935 104.324 47.3671C103.689 50.0408 99.1681 59.3985 96.2334 66.1612C93.2987 72.9239 90.4376 77.269 88.619 86.9212C88.619 86.9212 86.5568 96.5935 89.3328 112.635C91.9998 128.046 93.4573 134.575 98.0577 142.124C102.658 149.673 105.91 155.492 107.576 159.66C109.241 163.828 113.207 164.457 114.476 161.075C115.745 157.694 121.059 140.237 123.28 135.047C125.501 129.857 128.912 114.994 126.532 94.4704C124.153 73.9463 119.077 71.3513 116.142 64.274C113.207 57.1967 110.431 51.9281 109.479 48.4681C108.527 45.008 108.052 44.5362 106.782 44.6149Z" fill="#9E5151"/>
<path d="M111.635 162.018C111.633 162.018 111.631 162.018 111.629 162.018C111.21 162.009 110.79 161.844 110.38 161.527C110.277 161.447 110.258 161.299 110.339 161.196C110.419 161.093 110.569 161.074 110.672 161.155C111 161.407 111.326 161.539 111.64 161.546C111.771 161.549 111.875 161.657 111.872 161.788C111.869 161.916 111.764 162.018 111.635 162.018ZM112.735 161.579C112.669 161.579 112.604 161.552 112.557 161.499C112.469 161.402 112.478 161.252 112.577 161.166C112.821 160.951 113.047 160.65 113.249 160.271C113.31 160.156 113.454 160.112 113.57 160.173C113.686 160.234 113.73 160.377 113.669 160.492C113.44 160.921 113.179 161.267 112.892 161.519C112.847 161.559 112.791 161.579 112.735 161.579ZM109.702 160.696C109.628 160.696 109.555 160.662 109.509 160.597C109.355 160.385 109.204 160.147 109.059 159.891C109.001 159.787 108.935 159.671 108.864 159.545C108.799 159.431 108.84 159.287 108.954 159.223C109.069 159.16 109.214 159.2 109.278 159.314C109.35 159.44 109.415 159.556 109.474 159.66C109.61 159.901 109.752 160.124 109.895 160.322C109.972 160.428 109.948 160.576 109.841 160.652C109.799 160.682 109.75 160.696 109.702 160.696ZM113.927 159.503C113.9 159.503 113.874 159.499 113.847 159.489C113.724 159.446 113.659 159.311 113.702 159.188C113.815 158.873 113.94 158.5 114.084 158.048C114.124 157.924 114.258 157.855 114.383 157.895C114.508 157.934 114.578 158.067 114.538 158.191C114.392 158.648 114.265 159.025 114.151 159.346C114.116 159.443 114.025 159.503 113.927 159.503ZM108.474 158.612C108.391 158.612 108.31 158.568 108.266 158.491C108.084 158.169 107.885 157.816 107.671 157.437C107.606 157.323 107.647 157.179 107.762 157.115C107.877 157.052 108.022 157.092 108.086 157.206C108.3 157.585 108.499 157.938 108.681 158.26C108.745 158.373 108.705 158.517 108.59 158.581C108.553 158.602 108.513 158.612 108.474 158.612ZM114.671 157.201C114.648 157.201 114.625 157.198 114.602 157.191C114.477 157.153 114.405 157.021 114.444 156.897C114.551 156.546 114.664 156.168 114.792 155.74C114.829 155.615 114.961 155.544 115.087 155.581C115.213 155.618 115.285 155.749 115.248 155.874C115.12 156.303 115.006 156.682 114.899 157.034C114.868 157.136 114.773 157.201 114.671 157.201ZM107.285 156.502C107.202 156.502 107.121 156.459 107.077 156.381C106.887 156.042 106.69 155.689 106.486 155.324C106.423 155.21 106.465 155.066 106.58 155.003C106.694 154.94 106.839 154.981 106.903 155.095C107.106 155.46 107.303 155.813 107.493 156.152C107.557 156.265 107.515 156.409 107.401 156.473C107.364 156.493 107.324 156.502 107.285 156.502ZM115.362 154.884C115.34 154.884 115.318 154.881 115.295 154.874C115.169 154.838 115.097 154.707 115.134 154.582C115.244 154.204 115.357 153.816 115.473 153.421C115.509 153.296 115.641 153.224 115.767 153.26C115.893 153.296 115.966 153.427 115.929 153.552C115.814 153.948 115.701 154.336 115.59 154.713C115.56 154.817 115.465 154.884 115.362 154.884ZM106.108 154.388C106.024 154.388 105.942 154.343 105.899 154.265C105.7 153.906 105.504 153.549 105.315 153.204C105.252 153.09 105.294 152.946 105.41 152.884C105.525 152.822 105.67 152.864 105.732 152.978C105.921 153.323 106.118 153.679 106.316 154.038C106.379 154.152 106.337 154.296 106.222 154.358C106.185 154.378 106.146 154.388 106.108 154.388ZM116.039 152.562C116.017 152.562 115.995 152.559 115.973 152.553C115.847 152.517 115.774 152.386 115.81 152.26C115.922 151.877 116.035 151.49 116.148 151.099C116.185 150.974 116.317 150.902 116.443 150.938C116.569 150.975 116.642 151.106 116.605 151.231C116.491 151.621 116.379 152.008 116.267 152.391C116.237 152.495 116.142 152.562 116.039 152.562ZM104.944 152.265C104.859 152.265 104.777 152.22 104.734 152.141C104.538 151.78 104.344 151.421 104.158 151.076C104.096 150.961 104.14 150.818 104.256 150.756C104.372 150.695 104.516 150.738 104.578 150.853C104.763 151.198 104.957 151.556 105.153 151.917C105.215 152.032 105.172 152.175 105.056 152.237C105.021 152.256 104.982 152.265 104.944 152.265ZM116.716 150.242C116.694 150.242 116.672 150.239 116.649 150.232C116.523 150.196 116.451 150.065 116.488 149.939C116.601 149.552 116.716 149.164 116.83 148.778C116.867 148.653 116.999 148.582 117.126 148.619C117.251 148.656 117.324 148.787 117.286 148.912C117.172 149.297 117.058 149.684 116.944 150.071C116.914 150.175 116.819 150.242 116.716 150.242ZM103.797 150.133C103.712 150.133 103.63 150.087 103.587 150.007C103.393 149.642 103.203 149.282 103.022 148.936C102.961 148.821 103.007 148.678 103.123 148.618C103.24 148.558 103.383 148.603 103.444 148.718C103.624 149.063 103.814 149.423 104.008 149.787C104.069 149.902 104.024 150.045 103.908 150.106C103.873 150.124 103.835 150.133 103.797 150.133ZM102.675 147.99C102.589 147.99 102.505 147.943 102.463 147.861C102.273 147.492 102.088 147.129 101.912 146.782C101.853 146.665 101.901 146.523 102.018 146.465C102.136 146.406 102.279 146.454 102.338 146.57C102.512 146.916 102.697 147.278 102.887 147.646C102.946 147.762 102.9 147.904 102.783 147.964C102.748 147.981 102.711 147.99 102.675 147.99ZM117.405 147.923C117.382 147.923 117.359 147.92 117.337 147.913C117.211 147.876 117.139 147.744 117.177 147.619C117.298 147.217 117.417 146.827 117.529 146.461C117.568 146.336 117.701 146.266 117.826 146.304C117.952 146.342 118.023 146.474 117.984 146.599C117.872 146.964 117.754 147.353 117.633 147.754C117.602 147.857 117.507 147.923 117.405 147.923ZM101.585 145.829C101.497 145.829 101.412 145.781 101.371 145.697C101.185 145.318 101.007 144.951 100.843 144.605C100.786 144.487 100.837 144.346 100.956 144.291C101.075 144.235 101.217 144.286 101.273 144.403C101.436 144.747 101.613 145.113 101.799 145.49C101.856 145.607 101.807 145.748 101.689 145.805C101.656 145.822 101.62 145.829 101.585 145.829ZM118.117 145.612C118.093 145.612 118.069 145.608 118.046 145.601C117.92 145.562 117.851 145.429 117.89 145.305C118.018 144.9 118.143 144.512 118.262 144.152C118.302 144.028 118.437 143.96 118.562 144C118.686 144.041 118.755 144.174 118.714 144.298C118.596 144.657 118.471 145.043 118.344 145.447C118.312 145.547 118.218 145.612 118.117 145.612ZM100.547 143.643C100.457 143.643 100.37 143.592 100.33 143.504C100.151 143.109 99.9867 142.734 99.8422 142.391C99.7915 142.27 99.8487 142.132 99.9699 142.082C100.091 142.031 100.23 142.088 100.281 142.208C100.424 142.548 100.586 142.919 100.764 143.31C100.818 143.429 100.765 143.569 100.645 143.623C100.613 143.637 100.58 143.643 100.547 143.643ZM118.874 143.315C118.849 143.315 118.822 143.311 118.797 143.302C118.673 143.26 118.607 143.125 118.649 143.002C118.793 142.587 118.932 142.202 119.062 141.858C119.108 141.736 119.245 141.674 119.368 141.72C119.491 141.766 119.553 141.902 119.507 142.024C119.379 142.364 119.242 142.745 119.099 143.156C119.065 143.253 118.973 143.315 118.874 143.315ZM99.5868 141.426C99.4957 141.426 99.4089 141.373 99.3694 141.285C99.2165 140.945 99.0501 140.589 98.8608 140.198C98.8039 140.08 98.8538 139.939 98.9722 139.883C99.0906 139.826 99.2327 139.876 99.2896 139.994C99.4809 140.389 99.6491 140.749 99.8039 141.093C99.8574 141.212 99.8034 141.352 99.6835 141.405C99.652 141.419 99.6191 141.426 99.5868 141.426ZM119.732 141.055C119.702 141.055 119.671 141.049 119.641 141.037C119.52 140.987 119.462 140.849 119.512 140.728C119.647 140.406 119.796 140.057 119.953 139.687L119.984 139.614C120.035 139.494 120.175 139.438 120.295 139.489C120.416 139.54 120.473 139.678 120.422 139.798L120.391 139.87C120.234 140.24 120.086 140.588 119.952 140.909C119.914 141 119.825 141.055 119.732 141.055ZM98.5394 139.25C98.4522 139.25 98.3682 139.202 98.3265 139.119C98.1476 138.764 97.9657 138.408 97.7795 138.044C97.72 137.928 97.7668 137.786 97.8839 137.727C98.0011 137.668 98.1442 137.714 98.2036 137.83C98.3901 138.195 98.5724 138.552 98.7519 138.908C98.8107 139.025 98.7631 139.166 98.6456 139.225C98.6115 139.242 98.5752 139.25 98.5394 139.25ZM120.673 138.83C120.643 138.83 120.612 138.824 120.582 138.812C120.461 138.762 120.404 138.623 120.454 138.503C120.62 138.107 120.771 137.742 120.914 137.389C120.963 137.268 121.102 137.21 121.223 137.258C121.345 137.307 121.404 137.444 121.355 137.565C121.211 137.92 121.06 138.286 120.893 138.684C120.855 138.775 120.767 138.83 120.673 138.83ZM97.4428 137.097C97.3558 137.097 97.272 137.05 97.2302 136.968C97.0284 136.57 96.8508 136.216 96.6874 135.886C96.6294 135.769 96.678 135.628 96.7959 135.57C96.9137 135.513 97.0563 135.561 97.1142 135.678C97.277 136.006 97.4539 136.359 97.655 136.755C97.7141 136.872 97.667 137.013 97.5497 137.072C97.5153 137.089 97.4788 137.097 97.4428 137.097ZM121.581 136.591C121.553 136.591 121.524 136.586 121.495 136.575C121.373 136.528 121.312 136.392 121.359 136.27C121.506 135.893 121.65 135.514 121.787 135.145C121.833 135.022 121.97 134.96 122.093 135.005C122.216 135.05 122.279 135.186 122.234 135.308C122.096 135.68 121.951 136.061 121.803 136.44C121.767 136.534 121.677 136.591 121.581 136.591ZM96.3725 134.932C96.2834 134.932 96.198 134.882 96.1574 134.797C95.9797 134.425 95.8074 134.055 95.6452 133.699C95.5911 133.58 95.6443 133.441 95.764 133.387C95.8837 133.333 96.0245 133.386 96.0786 133.505C96.2397 133.858 96.4108 134.225 96.5873 134.595C96.6435 134.713 96.5929 134.854 96.4742 134.91C96.4412 134.925 96.4066 134.932 96.3725 134.932ZM122.421 134.327C122.395 134.327 122.369 134.323 122.343 134.314C122.219 134.271 122.153 134.136 122.197 134.013C122.33 133.636 122.461 133.253 122.587 132.875C122.628 132.751 122.762 132.684 122.887 132.724C123.012 132.765 123.08 132.899 123.038 133.023C122.912 133.403 122.78 133.789 122.646 134.169C122.612 134.266 122.52 134.327 122.421 134.327ZM95.3728 132.734C95.2805 132.734 95.1926 132.681 95.154 132.591C94.9936 132.219 94.8362 131.843 94.6861 131.473C94.637 131.352 94.696 131.215 94.8178 131.166C94.9396 131.117 95.0782 131.176 95.1273 131.297C95.2761 131.663 95.4323 132.036 95.5913 132.405C95.643 132.525 95.587 132.664 95.4662 132.715C95.4357 132.728 95.4039 132.734 95.3728 132.734ZM123.184 132.036C123.16 132.036 123.137 132.032 123.113 132.025C122.988 131.986 122.918 131.854 122.957 131.73C123.076 131.349 123.193 130.962 123.306 130.579C123.343 130.453 123.475 130.382 123.601 130.418C123.727 130.455 123.8 130.586 123.763 130.711C123.649 131.097 123.531 131.487 123.411 131.87C123.379 131.971 123.285 132.036 123.184 132.036ZM94.4652 130.498C94.3691 130.498 94.2786 130.439 94.2427 130.345C94.0998 129.969 93.9591 129.587 93.8243 129.207C93.7806 129.084 93.8457 128.949 93.9695 128.906C94.0934 128.863 94.2293 128.927 94.2729 129.05C94.4066 129.426 94.5461 129.806 94.6877 130.178C94.7341 130.3 94.6721 130.436 94.5492 130.482C94.5215 130.493 94.4931 130.498 94.4652 130.498ZM123.865 129.72C123.844 129.72 123.823 129.717 123.802 129.711C123.675 129.677 123.601 129.547 123.635 129.422C123.741 129.037 123.845 128.646 123.944 128.259C123.977 128.133 124.106 128.056 124.233 128.089C124.361 128.121 124.438 128.249 124.405 128.375C124.305 128.765 124.201 129.159 124.094 129.546C124.065 129.651 123.969 129.72 123.865 129.72ZM93.657 128.223C93.557 128.223 93.464 128.16 93.4311 128.061C93.3056 127.682 93.1816 127.293 93.0626 126.907C93.0242 126.782 93.095 126.65 93.2206 126.612C93.3462 126.574 93.4792 126.644 93.5175 126.769C93.6355 127.152 93.7585 127.537 93.883 127.914C93.924 128.037 93.8561 128.171 93.7313 128.211C93.7066 128.22 93.6816 128.223 93.657 128.223ZM124.465 127.382C124.446 127.382 124.428 127.38 124.41 127.375C124.282 127.345 124.203 127.218 124.233 127.091C124.325 126.704 124.415 126.31 124.501 125.919C124.529 125.792 124.656 125.711 124.785 125.739C124.913 125.767 124.994 125.892 124.966 126.02C124.88 126.413 124.789 126.81 124.696 127.2C124.67 127.309 124.572 127.382 124.465 127.382ZM92.947 125.917C92.8433 125.917 92.7479 125.849 92.7183 125.745C92.6088 125.362 92.5008 124.969 92.3973 124.578C92.3639 124.452 92.4399 124.322 92.5669 124.289C92.694 124.256 92.824 124.332 92.8573 124.458C92.96 124.846 93.0673 125.236 93.1759 125.617C93.2117 125.742 93.1383 125.873 93.0119 125.908C92.9903 125.914 92.9684 125.917 92.947 125.917ZM124.984 125.025C124.968 125.025 124.952 125.023 124.936 125.02C124.808 124.994 124.724 124.87 124.75 124.742C124.829 124.352 124.906 123.955 124.979 123.561C125.003 123.433 125.127 123.348 125.256 123.372C125.385 123.396 125.471 123.519 125.447 123.647C125.374 124.043 125.296 124.442 125.216 124.835C125.194 124.947 125.095 125.025 124.984 125.025ZM92.3296 123.585C92.2224 123.585 92.1251 123.512 92.0987 123.404C92.004 123.017 91.9108 122.621 91.8216 122.226C91.7929 122.099 91.8735 121.972 92.0016 121.944C92.1298 121.915 92.257 121.995 92.2857 122.122C92.3743 122.515 92.4669 122.909 92.5609 123.293C92.5919 123.419 92.5135 123.547 92.3859 123.578C92.3671 123.582 92.3482 123.585 92.3296 123.585ZM125.424 122.652C125.411 122.652 125.398 122.651 125.384 122.649C125.255 122.627 125.167 122.506 125.189 122.377C125.255 121.985 125.32 121.585 125.38 121.19C125.4 121.061 125.521 120.972 125.651 120.991C125.781 121.011 125.87 121.131 125.85 121.26C125.789 121.658 125.725 122.06 125.658 122.455C125.639 122.571 125.538 122.652 125.424 122.652ZM91.7976 121.231C91.6872 121.231 91.5882 121.155 91.565 121.043C91.499 120.726 91.4339 120.402 91.3712 120.081C91.3567 120.006 91.3422 119.931 91.3278 119.857C91.3031 119.729 91.3877 119.605 91.5166 119.58C91.6457 119.556 91.7703 119.64 91.795 119.768C91.8093 119.842 91.8237 119.917 91.8382 119.991C91.9005 120.311 91.9653 120.633 92.0308 120.947C92.0574 121.075 91.9746 121.2 91.846 121.226C91.8298 121.23 91.8136 121.231 91.7976 121.231ZM125.788 120.267C125.777 120.267 125.767 120.266 125.756 120.265C125.626 120.247 125.534 120.128 125.552 119.999C125.606 119.606 125.657 119.204 125.706 118.806C125.721 118.677 125.84 118.584 125.97 118.6C126.101 118.615 126.194 118.733 126.178 118.862C126.129 119.263 126.077 119.667 126.023 120.063C126.007 120.181 125.905 120.267 125.788 120.267ZM91.3377 118.862C91.225 118.862 91.125 118.782 91.104 118.669C91.0317 118.275 90.9599 117.874 90.8907 117.479C90.8683 117.35 90.955 117.228 91.0845 117.206C91.2139 117.183 91.337 117.269 91.3594 117.398C91.4284 117.792 91.4999 118.191 91.572 118.584C91.5956 118.712 91.5099 118.835 91.3807 118.858C91.3662 118.861 91.3519 118.862 91.3377 118.862ZM126.078 117.872C126.07 117.872 126.061 117.871 126.053 117.87C125.922 117.857 125.828 117.74 125.841 117.611C125.883 117.215 125.923 116.813 125.959 116.414C125.971 116.284 126.087 116.188 126.217 116.2C126.348 116.212 126.445 116.326 126.433 116.456C126.396 116.857 126.356 117.262 126.314 117.66C126.301 117.781 126.198 117.872 126.078 117.872ZM90.9223 116.485C90.808 116.485 90.7071 116.403 90.6879 116.287C90.6226 115.892 90.5578 115.491 90.4957 115.093C90.4755 114.965 90.5644 114.844 90.6941 114.824C90.824 114.804 90.9455 114.892 90.9657 115.021C91.0276 115.417 91.0922 115.817 91.1573 116.21C91.1786 116.339 91.0908 116.46 90.9612 116.481C90.9482 116.484 90.9352 116.485 90.9223 116.485ZM126.297 115.469C126.291 115.469 126.285 115.469 126.279 115.468C126.148 115.458 126.05 115.345 126.06 115.215C126.09 114.819 126.118 114.415 126.143 114.015C126.151 113.885 126.263 113.786 126.395 113.794C126.526 113.802 126.626 113.914 126.618 114.044C126.593 114.446 126.564 114.852 126.534 115.251C126.524 115.375 126.42 115.469 126.297 115.469ZM90.5489 114.1C90.4328 114.1 90.3312 114.016 90.3139 113.898C90.2554 113.502 90.1978 113.099 90.1428 112.702C90.1249 112.572 90.2159 112.453 90.346 112.436C90.4762 112.418 90.5961 112.508 90.614 112.637C90.6689 113.034 90.7263 113.435 90.7845 113.83C90.8036 113.959 90.7136 114.079 90.5837 114.098C90.572 114.099 90.5604 114.1 90.5489 114.1ZM126.447 113.061C126.444 113.061 126.44 113.061 126.436 113.061C126.305 113.054 126.203 112.944 126.21 112.813C126.229 112.415 126.246 112.011 126.26 111.611C126.265 111.481 126.376 111.379 126.506 111.384C126.637 111.388 126.74 111.498 126.735 111.628C126.721 112.03 126.704 112.436 126.685 112.836C126.679 112.963 126.574 113.061 126.447 113.061ZM90.2179 111.71C90.1 111.71 89.9977 111.623 89.9823 111.504C89.9308 111.106 89.8804 110.702 89.8325 110.304C89.8169 110.175 89.91 110.057 90.0405 110.042C90.1708 110.026 90.2892 110.119 90.3048 110.248C90.3525 110.645 90.4027 111.047 90.454 111.443C90.4708 111.573 90.3787 111.691 90.2484 111.708C90.2382 111.709 90.228 111.71 90.2179 111.71ZM126.532 110.65C126.531 110.65 126.529 110.65 126.527 110.65C126.396 110.647 126.292 110.539 126.294 110.409C126.303 110.012 126.309 109.607 126.313 109.205C126.314 109.076 126.42 108.972 126.551 108.972C126.552 108.972 126.552 108.972 126.553 108.972C126.684 108.973 126.79 109.079 126.789 109.21C126.785 109.614 126.779 110.02 126.77 110.419C126.767 110.548 126.661 110.65 126.532 110.65ZM89.9296 109.313C89.81 109.313 89.707 109.224 89.6935 109.103C89.6491 108.703 89.606 108.299 89.5656 107.901C89.5524 107.771 89.6476 107.656 89.7783 107.643C89.9088 107.629 90.0256 107.724 90.0388 107.854C90.0791 108.25 90.122 108.653 90.1663 109.051C90.1807 109.181 90.0865 109.298 89.956 109.312C89.9472 109.313 89.9384 109.313 89.9296 109.313ZM126.554 108.237C126.423 108.237 126.317 108.132 126.316 108.002C126.315 107.603 126.311 107.199 126.305 106.799C126.302 106.668 126.407 106.561 126.539 106.559C126.67 106.558 126.778 106.661 126.78 106.791C126.787 107.193 126.791 107.6 126.792 108C126.792 108.131 126.686 108.237 126.555 108.237C126.555 108.237 126.554 108.237 126.554 108.237ZM89.6853 106.912C89.5637 106.912 89.46 106.82 89.4488 106.698C89.4116 106.296 89.3762 105.891 89.3432 105.494C89.3324 105.364 89.4299 105.25 89.5607 105.239C89.6915 105.228 89.8065 105.325 89.8173 105.455C89.8501 105.851 89.8855 106.255 89.9224 106.655C89.9344 106.785 89.8381 106.9 89.7073 106.911C89.6999 106.912 89.6926 106.912 89.6853 106.912ZM126.516 105.825C126.387 105.825 126.282 105.723 126.278 105.595C126.275 105.483 126.272 105.371 126.268 105.259C126.259 104.969 126.249 104.677 126.238 104.392C126.233 104.261 126.336 104.152 126.467 104.147C126.598 104.142 126.709 104.244 126.714 104.374C126.724 104.66 126.734 104.953 126.743 105.244C126.747 105.357 126.75 105.47 126.754 105.582C126.757 105.712 126.654 105.821 126.522 105.825C126.52 105.825 126.518 105.825 126.516 105.825ZM89.4861 104.507C89.3626 104.507 89.2583 104.413 89.2492 104.289C89.2198 103.887 89.1921 103.481 89.1669 103.082C89.1587 102.952 89.2583 102.84 89.3894 102.832C89.5208 102.824 89.6334 102.923 89.6417 103.053C89.6668 103.45 89.6943 103.854 89.7236 104.254C89.7331 104.384 89.6346 104.497 89.5036 104.507C89.4978 104.507 89.492 104.507 89.4861 104.507ZM126.426 103.414C126.299 103.414 126.194 103.315 126.188 103.189C126.17 102.789 126.149 102.384 126.128 101.986C126.12 101.856 126.221 101.745 126.352 101.738C126.483 101.73 126.595 101.83 126.602 101.96C126.624 102.36 126.645 102.766 126.663 103.167C126.669 103.297 126.568 103.408 126.437 103.414C126.433 103.414 126.429 103.414 126.426 103.414ZM89.3341 102.099C89.2085 102.099 89.1035 102.001 89.0968 101.875C89.0755 101.473 89.0561 101.066 89.0391 100.668C89.0336 100.537 89.1355 100.427 89.2667 100.422C89.3974 100.416 89.5088 100.518 89.5144 100.648C89.5312 101.045 89.5505 101.449 89.5718 101.851C89.5787 101.981 89.478 102.092 89.3468 102.099C89.3426 102.099 89.3383 102.099 89.3341 102.099ZM126.293 101.005C126.168 101.005 126.064 100.909 126.056 100.784C126.03 100.382 126.002 99.9784 125.972 99.5833C125.963 99.4533 126.061 99.3401 126.192 99.3305C126.323 99.3209 126.437 99.4185 126.447 99.5485C126.476 99.9452 126.504 100.351 126.53 100.754C126.539 100.884 126.439 100.996 126.308 101.005C126.303 101.005 126.298 101.005 126.293 101.005ZM89.232 99.688C89.1041 99.688 88.9984 99.5871 88.9944 99.4594C88.9816 99.055 88.9711 98.6483 88.9631 98.2505C88.9605 98.1202 89.0648 98.0124 89.1961 98.0098C89.3282 98.0074 89.4361 98.1107 89.4387 98.2411C89.4467 98.6371 89.4571 99.0421 89.4698 99.4446C89.4739 99.5749 89.3708 99.6839 89.2395 99.6879C89.237 99.688 89.2345 99.688 89.232 99.688ZM126.114 98.5996C125.991 98.5996 125.887 98.5065 125.877 98.3833C125.843 97.9825 125.807 97.5791 125.769 97.1845C125.757 97.0547 125.853 96.9395 125.983 96.9272C126.114 96.915 126.23 97.0101 126.243 97.1399C126.28 97.5363 126.317 97.9413 126.351 98.3437C126.362 98.4736 126.265 98.5878 126.134 98.5987C126.127 98.5993 126.12 98.5996 126.114 98.5996ZM89.1837 97.2753C89.0532 97.2753 88.9469 97.1709 88.9459 97.0412C88.9437 96.7778 88.9426 96.5129 88.9426 96.2539C88.9426 96.1123 88.943 95.9716 88.9436 95.8317C88.9442 95.7017 89.0506 95.5967 89.1814 95.5967C89.3138 95.5973 89.4198 95.7034 89.4192 95.8338C89.4186 95.973 89.4183 96.1131 89.4183 96.2539C89.4183 96.5117 89.4194 96.7752 89.4215 97.0374C89.4226 97.1678 89.317 97.2743 89.1856 97.2753C89.185 97.2753 89.1843 97.2753 89.1837 97.2753ZM125.884 96.1982C125.764 96.1982 125.661 96.1082 125.648 95.9871C125.605 95.5874 125.56 95.1851 125.513 94.7913C125.498 94.6618 125.591 94.5444 125.721 94.5292C125.852 94.5139 125.97 94.6065 125.985 94.736C126.032 95.1316 126.078 95.5358 126.121 95.9373C126.135 96.0669 126.04 96.1832 125.909 96.1969C125.901 96.1978 125.892 96.1982 125.884 96.1982ZM89.1951 94.8624C89.1936 94.8624 89.1922 94.8624 89.1907 94.8623C89.0594 94.86 88.9548 94.7524 88.9572 94.6221C88.9646 94.2145 88.9749 93.8075 88.9879 93.4126C88.9922 93.2823 89.1018 93.1801 89.2334 93.1843C89.3647 93.1886 89.4676 93.2977 89.4633 93.4279C89.4504 93.8206 89.4401 94.2253 89.4328 94.6306C89.4304 94.7594 89.3244 94.8624 89.1951 94.8624ZM125.599 93.8029C125.481 93.8029 125.379 93.7162 125.364 93.5973C125.311 93.199 125.256 92.798 125.199 92.4054C125.18 92.2764 125.271 92.1567 125.401 92.1382C125.53 92.1197 125.651 92.2093 125.67 92.3383C125.727 92.7329 125.783 93.1359 125.835 93.5362C125.852 93.6655 125.76 93.7839 125.63 93.8008C125.62 93.8022 125.609 93.8029 125.599 93.8029ZM89.2751 92.4508C89.2712 92.4508 89.2672 92.4507 89.2633 92.4505C89.1321 92.4441 89.031 92.3334 89.0373 92.2032C89.0574 91.7939 89.081 91.3872 89.1075 90.9945C89.1163 90.8644 89.2299 90.7658 89.3606 90.7747C89.4917 90.7834 89.5908 90.8958 89.5821 91.0259C89.5558 91.4159 89.5324 91.8197 89.5124 92.2262C89.5062 92.3525 89.4011 92.4508 89.2751 92.4508ZM125.253 91.4154C125.138 91.4154 125.037 91.3324 125.019 91.2161C124.956 90.8193 124.889 90.4201 124.821 90.0295C124.799 89.901 124.886 89.7789 125.015 89.7568C125.145 89.7346 125.268 89.8209 125.29 89.9493C125.358 90.3422 125.425 90.7436 125.488 91.1426C125.509 91.2713 125.42 91.3922 125.29 91.4125C125.278 91.4145 125.265 91.4154 125.253 91.4154ZM89.4451 90.0438C89.4366 90.0438 89.4281 90.0434 89.4195 90.0425C89.2889 90.0287 89.1943 89.9123 89.2083 89.7827C89.2493 89.4014 89.3024 88.995 89.3661 88.5748C89.3857 88.4459 89.5069 88.3572 89.6367 88.3766C89.7666 88.396 89.856 88.5162 89.8365 88.6451C89.7738 89.0586 89.7216 89.4582 89.6813 89.8328C89.6682 89.9539 89.5651 90.0438 89.4451 90.0438ZM124.84 89.0386C124.728 89.0386 124.628 88.9595 124.607 88.8461C124.532 88.4494 124.453 88.0525 124.374 87.6664C124.348 87.5387 124.431 87.414 124.559 87.3879C124.688 87.3617 124.814 87.4441 124.84 87.5718C124.92 87.9604 124.999 88.3598 125.074 88.7589C125.099 88.8871 125.014 89.0104 124.885 89.0345C124.87 89.0373 124.855 89.0386 124.84 89.0386ZM89.8031 87.6548C89.7888 87.6548 89.7743 87.6536 89.7598 87.6509C89.6306 87.6273 89.5451 87.5043 89.5689 87.376C89.6399 86.9932 89.7197 86.5925 89.8063 86.1851C89.8334 86.0576 89.9594 85.976 90.088 86.0029C90.2166 86.0298 90.2988 86.155 90.2717 86.2825C90.186 86.6859 90.1069 87.0826 90.0367 87.4614C90.0156 87.5752 89.9156 87.6548 89.8031 87.6548ZM124.354 86.6758C124.245 86.6758 124.146 86.6008 124.122 86.4908C124.034 86.0982 123.942 85.7042 123.849 85.3198C123.819 85.1931 123.897 85.0656 124.025 85.0352C124.153 85.0046 124.281 85.0828 124.312 85.2096C124.405 85.5966 124.498 85.9932 124.586 86.3886C124.614 86.5158 124.534 86.6419 124.405 86.6701C124.388 86.6739 124.371 86.6758 124.354 86.6758ZM90.3034 85.2908C90.2855 85.2908 90.2673 85.2888 90.2491 85.2846C90.1212 85.255 90.0418 85.1281 90.0716 85.0011C90.1615 84.6188 90.2586 84.2226 90.3604 83.8233C90.3926 83.6969 90.5219 83.6203 90.6492 83.6523C90.7766 83.6843 90.8537 83.8126 90.8215 83.9391C90.7205 84.3355 90.624 84.7289 90.5348 85.1084C90.5092 85.2173 90.4114 85.2908 90.3034 85.2908ZM123.786 84.331C123.68 84.331 123.583 84.2605 123.556 84.1543C123.454 83.7654 123.347 83.3752 123.24 82.9946C123.204 82.869 123.278 82.7387 123.405 82.7035C123.531 82.6682 123.662 82.7415 123.698 82.867C123.806 83.2506 123.913 83.6437 124.016 84.0355C124.049 84.1616 123.973 84.2905 123.846 84.3233C123.826 84.3285 123.805 84.331 123.786 84.331ZM90.8991 82.9488C90.8786 82.9488 90.8577 82.9461 90.837 82.9406C90.7101 82.9066 90.6351 82.777 90.6694 82.6511C90.7734 82.2689 90.8835 81.8763 90.9964 81.4842C91.0325 81.3588 91.1642 81.2862 91.2904 81.3221C91.4167 81.3579 91.4898 81.4886 91.4537 81.6139C91.3415 82.0038 91.2321 82.3942 91.1286 82.7743C91.0999 82.8795 91.0039 82.9488 90.8991 82.9488ZM123.129 82.0093C123.027 82.0093 122.932 81.9435 122.901 81.8416C122.784 81.4584 122.662 81.0729 122.539 80.6959C122.498 80.5719 122.566 80.4387 122.691 80.3983C122.816 80.358 122.95 80.4257 122.991 80.5497C123.116 80.9299 123.239 81.3185 123.356 81.7048C123.395 81.8296 123.323 81.9613 123.198 81.9991C123.175 82.006 123.152 82.0093 123.129 82.0093ZM91.5675 80.6262C91.5448 80.6262 91.5218 80.6229 91.499 80.6161C91.3732 80.5786 91.3019 80.447 91.3396 80.3221C91.4552 79.9403 91.5757 79.5509 91.6979 79.1648C91.7373 79.0404 91.8708 78.9713 91.9961 79.0103C92.1214 79.0494 92.1911 79.1819 92.1518 79.3063C92.0301 79.6905 91.9102 80.078 91.7952 80.4579C91.7643 80.5602 91.6698 80.6262 91.5675 80.6262ZM122.376 79.7165C122.278 79.7165 122.186 79.6556 122.152 79.5583C122.019 79.1814 121.881 78.8016 121.74 78.4293C121.694 78.3072 121.757 78.1712 121.88 78.1255C122.003 78.0798 122.14 78.1417 122.186 78.2638C122.327 78.6393 122.467 79.0224 122.601 79.4024C122.644 79.5255 122.579 79.6602 122.455 79.7032C122.429 79.7122 122.402 79.7165 122.376 79.7165ZM92.2969 78.3205C92.2723 78.3205 92.2474 78.3168 92.2229 78.3088C92.098 78.2682 92.0299 78.1349 92.0708 78.011C92.1961 77.631 92.3259 77.2448 92.4567 76.8633C92.499 76.7399 92.6341 76.6738 92.7585 76.7159C92.8828 76.7578 92.9493 76.8919 92.907 77.0154C92.7769 77.3952 92.6476 77.7796 92.5229 78.1579C92.4901 78.2574 92.3969 78.3205 92.2969 78.3205ZM121.525 77.4581C121.431 77.4581 121.341 77.4018 121.304 77.3094C121.158 76.9455 121.003 76.5717 120.844 76.1984C120.793 76.0784 120.85 75.9399 120.971 75.8891C121.092 75.8384 121.231 75.8947 121.282 76.0148C121.442 76.3909 121.598 76.7676 121.746 77.1345C121.794 77.2555 121.735 77.3929 121.613 77.4412C121.584 77.4527 121.554 77.4581 121.525 77.4581ZM93.0804 76.0342C93.0541 76.0342 93.0274 76.0299 93.0012 76.0207C92.8773 75.9773 92.8124 75.8425 92.8561 75.7196C92.9912 75.3397 93.1301 74.9565 93.2688 74.5804C93.314 74.458 93.4506 74.3951 93.5739 74.4399C93.6972 74.4847 93.7606 74.6203 93.7154 74.7427C93.5773 75.1171 93.4391 75.4986 93.3046 75.8767C93.2702 75.9737 93.1784 76.0342 93.0804 76.0342ZM120.581 75.2361C120.49 75.2361 120.403 75.1837 120.363 75.0956C120.216 74.7641 120.062 74.4257 119.866 73.9982C119.812 73.8796 119.864 73.7396 119.984 73.6856C120.103 73.6315 120.244 73.6839 120.299 73.8025C120.496 74.2316 120.65 74.5715 120.798 74.9045C120.852 75.0237 120.797 75.1632 120.677 75.2159C120.646 75.2297 120.613 75.2361 120.581 75.2361ZM93.9173 73.7659C93.8893 73.7659 93.8607 73.761 93.8329 73.7505C93.7101 73.7042 93.6484 73.5679 93.695 73.446C93.8405 73.066 93.9886 72.6861 94.1353 72.3167C94.1835 72.1955 94.3216 72.1358 94.4438 72.1837C94.566 72.2316 94.626 72.3686 94.5778 72.4899C94.4318 72.8574 94.2844 73.2355 94.1397 73.6136C94.1036 73.7079 94.0132 73.7659 93.9173 73.7659ZM119.578 73.0397C119.488 73.0397 119.401 72.9883 119.361 72.9013C119.257 72.6739 119.173 72.4888 119.097 72.3187C119.023 72.1539 118.944 71.9799 118.862 71.8016C118.807 71.6831 118.859 71.543 118.979 71.4887C119.098 71.4345 119.239 71.4866 119.294 71.6052C119.377 71.785 119.457 71.9605 119.531 72.1268C119.607 72.2956 119.691 72.4797 119.794 72.7059C119.849 72.8245 119.796 72.9645 119.676 73.0185C119.644 73.0329 119.611 73.0397 119.578 73.0397ZM94.8105 71.5187C94.7804 71.5187 94.7499 71.513 94.7203 71.501C94.5988 71.4515 94.5407 71.3136 94.5905 71.193C94.7473 70.8137 94.906 70.4377 95.0623 70.0756C95.114 69.9557 95.2538 69.9002 95.3745 69.9515C95.4953 70.0028 95.5512 70.1415 95.4995 70.2614C95.3443 70.6213 95.1865 70.9951 95.0307 71.3722C94.9929 71.4635 94.9041 71.5187 94.8105 71.5187ZM118.562 70.8457C118.474 70.8457 118.388 70.7961 118.348 70.7112C118.186 70.3739 118.013 70.0189 117.819 69.6259C117.762 69.5088 117.811 69.3675 117.929 69.3102C118.047 69.253 118.189 69.3015 118.247 69.4187C118.441 69.813 118.614 70.1693 118.777 70.508C118.833 70.6257 118.783 70.7666 118.665 70.8227C118.632 70.8383 118.597 70.8457 118.562 70.8457ZM95.7696 69.2982C95.737 69.2982 95.7038 69.2916 95.6722 69.2774C95.5524 69.224 95.4989 69.0843 95.5528 68.9654C95.7256 68.5837 95.8982 68.2131 96.0656 67.864C96.1221 67.7463 96.264 67.6963 96.3826 67.7524C96.5012 67.8084 96.5515 67.9492 96.4951 68.0669C96.3291 68.413 96.1581 68.7803 95.9866 69.1589C95.947 69.2464 95.8603 69.2982 95.7696 69.2982ZM117.495 68.6753C117.408 68.6753 117.324 68.6272 117.282 68.5441C117.121 68.2221 116.943 67.8689 116.739 67.4644C116.68 67.3478 116.728 67.206 116.845 67.1476C116.963 67.0892 117.106 67.1364 117.165 67.253C117.369 67.658 117.547 68.0117 117.708 68.3343C117.766 68.451 117.718 68.5927 117.601 68.6506C117.567 68.6673 117.531 68.6753 117.495 68.6753ZM96.8181 67.1178C96.7817 67.1178 96.7447 67.1095 96.71 67.0918C96.5931 67.0325 96.5468 66.8903 96.6066 66.7742C96.8057 66.3879 97.0008 66.0267 97.1865 65.7008C97.2512 65.5873 97.3962 65.5473 97.5106 65.6115C97.6249 65.6757 97.6653 65.8197 97.6006 65.9332C97.4181 66.2534 97.2262 66.6087 97.0301 66.9892C96.988 67.0709 96.9046 67.1178 96.8181 67.1178ZM116.406 66.5156C116.319 66.5156 116.235 66.468 116.194 66.3855L115.647 65.3067C115.588 65.1902 115.635 65.0483 115.753 64.9898C115.87 64.9312 116.013 64.9782 116.072 65.0947L116.619 66.1734C116.678 66.2899 116.63 66.4318 116.513 66.4903C116.479 66.5074 116.442 66.5156 116.406 66.5156ZM98.0059 65.0098C97.9658 65.0098 97.9251 64.9997 97.8878 64.9785C97.7739 64.9137 97.7345 64.7694 97.7998 64.6563C97.9896 64.3278 98.1884 63.9744 98.3907 63.6062C98.4536 63.4917 98.598 63.4495 98.7134 63.5119C98.8287 63.5743 98.8712 63.7177 98.8083 63.8322C98.6044 64.2034 98.404 64.5597 98.2125 64.8912C98.1685 64.9672 98.0884 65.0098 98.0059 65.0098ZM115.314 64.3577C115.227 64.3577 115.143 64.3099 115.101 64.2273C114.903 63.8349 114.725 63.4811 114.558 63.1458C114.499 63.029 114.547 62.8873 114.665 62.8293C114.783 62.7714 114.925 62.819 114.984 62.9358C115.151 63.2707 115.329 63.624 115.526 64.0159C115.585 64.1325 115.538 64.2743 115.42 64.3327C115.386 64.3497 115.35 64.3577 115.314 64.3577ZM99.1728 62.8898C99.1356 62.8898 99.0978 62.8811 99.0625 62.8627C98.9462 62.8022 98.9013 62.6596 98.9623 62.5441C99.1433 62.2014 99.3304 61.8412 99.5187 61.4732C99.5781 61.357 99.7212 61.3106 99.8384 61.3696C99.9555 61.4286 100.002 61.5707 99.9428 61.6869C99.7536 62.0567 99.5655 62.4188 99.3836 62.7633C99.3411 62.8438 99.2584 62.8898 99.1728 62.8898ZM114.233 62.194C114.145 62.194 114.06 62.1455 114.019 62.0618C113.828 61.676 113.654 61.3202 113.486 60.9742C113.429 60.8567 113.479 60.7157 113.597 60.6591C113.716 60.6026 113.858 60.652 113.915 60.7694C114.082 61.1145 114.256 61.4692 114.446 61.854C114.504 61.9711 114.455 62.1125 114.337 62.1699C114.303 62.1862 114.268 62.194 114.233 62.194ZM100.275 60.7361C100.24 60.7361 100.204 60.7282 100.17 60.7116C100.052 60.6539 100.004 60.5123 100.062 60.3954C100.237 60.0441 100.416 59.6795 100.595 59.3119C100.652 59.1944 100.794 59.1451 100.912 59.2018C101.031 59.2584 101.08 59.3995 101.023 59.5169C100.844 59.8859 100.664 60.2518 100.489 60.6045C100.447 60.6878 100.363 60.7361 100.275 60.7361ZM113.178 60.0175C113.089 60.0175 113.003 59.9673 112.963 59.8817C112.781 59.4985 112.609 59.1287 112.451 58.7826C112.397 58.6638 112.45 58.5239 112.57 58.4701C112.689 58.4163 112.83 58.4689 112.885 58.5876C113.042 58.9319 113.213 59.2998 113.393 59.6811C113.449 59.7991 113.398 59.9397 113.279 59.9951C113.246 60.0103 113.212 60.0175 113.178 60.0175ZM101.333 58.5602C101.299 58.5602 101.264 58.5529 101.231 58.5376C101.113 58.482 101.062 58.3413 101.118 58.2234C101.288 57.8661 101.46 57.4984 101.632 57.1305C101.687 57.0122 101.828 56.9605 101.947 57.0152C102.066 57.0698 102.118 57.2101 102.063 57.3284C101.892 57.6975 101.718 58.0664 101.548 58.4248C101.507 58.5102 101.422 58.5602 101.333 58.5602ZM112.175 57.8172C112.083 57.8172 111.996 57.7638 111.957 57.6746C111.786 57.2804 111.627 56.9034 111.487 56.5541C111.438 56.433 111.497 56.2957 111.619 56.2472C111.741 56.1989 111.879 56.2577 111.928 56.3788C112.067 56.7242 112.224 57.0973 112.394 57.4876C112.446 57.6073 112.39 57.7462 112.269 57.7978C112.239 57.8109 112.207 57.8172 112.175 57.8172ZM102.353 56.367C102.321 56.367 102.287 56.3602 102.255 56.3459C102.136 56.2922 102.083 56.1524 102.137 56.0336C102.304 55.6675 102.471 55.2971 102.633 54.9328C102.687 54.8136 102.827 54.7598 102.947 54.8126C103.067 54.8654 103.121 55.0049 103.068 55.1241C102.905 55.4895 102.738 55.861 102.57 56.2282C102.53 56.3154 102.444 56.367 102.353 56.367ZM111.278 55.5729C111.18 55.5729 111.088 55.5122 111.053 55.4152C111.015 55.308 110.979 55.2024 110.945 55.1014C110.851 54.8214 110.757 54.5435 110.664 54.2685C110.622 54.145 110.689 54.0111 110.813 53.9695C110.938 53.9279 111.073 53.9943 111.115 54.1179C111.208 54.3933 111.302 54.6716 111.396 54.9519C111.429 55.0506 111.465 55.1537 111.502 55.2585C111.546 55.3815 111.48 55.5162 111.357 55.5595C111.33 55.5686 111.304 55.5729 111.278 55.5729ZM103.339 54.1581C103.308 54.1581 103.276 54.1519 103.245 54.1386C103.124 54.0868 103.069 53.9478 103.121 53.8282C103.286 53.4511 103.447 53.0781 103.599 52.7196C103.65 52.5996 103.79 52.5433 103.911 52.594C104.032 52.6447 104.088 52.7832 104.037 52.9033C103.884 53.2631 103.723 53.6374 103.558 54.0159C103.519 54.1049 103.431 54.1581 103.339 54.1581ZM110.497 53.2867C110.399 53.2867 110.307 53.2253 110.273 53.1275C110.129 52.713 109.997 52.3413 109.871 51.9912C109.827 51.8684 109.891 51.7333 110.015 51.6894C110.138 51.6455 110.275 51.7093 110.319 51.8321C110.446 52.184 110.578 52.5574 110.722 52.9737C110.765 53.0969 110.699 53.2313 110.575 53.2737C110.549 53.2825 110.523 53.2867 110.497 53.2867ZM104.285 51.932C104.255 51.932 104.225 51.9264 104.195 51.9144C104.074 51.8652 104.015 51.7274 104.065 51.6067C104.232 51.2021 104.383 50.8258 104.515 50.4883C104.562 50.3667 104.7 50.3064 104.822 50.3534C104.945 50.4005 105.006 50.5372 104.958 50.6588C104.825 50.999 104.673 51.378 104.505 51.7852C104.468 51.8766 104.379 51.932 104.285 51.932ZM109.675 51.0149C109.579 51.0149 109.489 50.9569 109.453 50.8626C109.298 50.4591 109.149 50.0838 109.008 49.7471C108.957 49.6268 109.015 49.4886 109.136 49.4386C109.257 49.3886 109.397 49.4456 109.447 49.566C109.59 49.9071 109.741 50.287 109.897 50.695C109.944 50.8169 109.882 50.9532 109.759 50.9995C109.732 51.01 109.703 51.0149 109.675 51.0149ZM105.156 49.6746C105.131 49.6746 105.106 49.6706 105.081 49.6622C104.956 49.6206 104.889 49.4868 104.931 49.3632C104.966 49.2602 104.996 49.1673 105.02 49.0869C105.114 48.778 105.224 48.4816 105.349 48.206C105.402 48.0871 105.543 48.0338 105.663 48.0872C105.783 48.1405 105.836 48.2802 105.783 48.3991C105.667 48.6561 105.563 48.9333 105.476 49.2228C105.45 49.308 105.418 49.4059 105.382 49.5137C105.348 49.6123 105.256 49.6746 105.156 49.6746ZM108.734 48.7897C108.645 48.7897 108.56 48.7403 108.519 48.6558C108.323 48.2499 108.132 47.9009 107.953 47.6186C107.884 47.5082 107.917 47.3625 108.028 47.2931C108.139 47.2237 108.286 47.2568 108.356 47.3671C108.545 47.6646 108.744 48.0294 108.948 48.4514C109.005 48.5689 108.955 48.7099 108.837 48.7663C108.803 48.7822 108.768 48.7897 108.734 48.7897ZM106.175 47.498C106.126 47.498 106.075 47.4827 106.033 47.4508C105.928 47.3725 105.906 47.2246 105.985 47.1203C106.474 46.4733 106.914 46.2314 106.932 46.2214C106.984 46.1931 107.046 46.1853 107.103 46.1997C107.237 46.2328 107.372 46.2965 107.506 46.3892C107.613 46.464 107.639 46.6112 107.564 46.718C107.489 46.8248 107.34 46.8507 107.233 46.7759C107.18 46.7392 107.128 46.71 107.079 46.6886C106.947 46.7809 106.67 47.0017 106.366 47.4036C106.319 47.4654 106.248 47.498 106.175 47.498Z" fill="#8C4949"/>
<path d="M107.064 50.1276C106.982 49.8116 106.533 49.7999 106.434 50.1111C105.79 52.1343 104.223 56.5223 101.544 60.9103C97.8945 66.8876 91.2309 80.5723 90.4376 93.3134C89.6443 106.054 91.2309 114.076 93.7694 124.301C96.3079 134.525 98.2118 137.356 101.861 143.648C105.51 149.94 109.159 157.805 110.428 159.378C111.698 160.951 112.015 159.221 113.443 155.917C114.871 152.614 123.438 128.076 124.39 121.155C125.342 114.234 126.294 95.6728 121.534 80.7297C116.926 66.26 110.085 61.8194 107.064 50.1276Z" fill="#21284F"/>
<path d="M115.407 150.67C118.438 142.171 123.659 126.469 124.39 121.155C125.342 114.234 126.294 95.6727 121.534 80.7296C117.548 68.215 111.893 63.2022 108.483 54.512C108.498 57.9421 109.051 66.1786 113.391 75.2635C119.103 87.2168 122.804 93.9275 122.91 103.679C123.016 113.43 120.477 121.085 119.208 127.795C118.177 133.249 116.796 141.681 115.407 150.67Z" fill="#1B1F3F"/>
<path d="M96.7839 78.3701C96.7839 78.3701 91.8655 98.9759 99.0051 125.716C99.0051 125.716 99.1681 118.297 98.5336 113.422C97.899 108.546 96.3127 101.705 96.7886 97.8518C97.2645 93.9986 98.9208 80.4348 96.7839 78.3701Z" fill="#1B1F3F"/>
<path d="M99.0049 125.952C98.8983 125.952 98.8031 125.881 98.7752 125.777C97.1434 119.665 96.0109 113.368 95.4093 107.06C94.928 102.013 94.7834 96.9484 94.9795 92.0062C95.3137 83.5868 96.5402 78.3674 96.5525 78.3157C96.5722 78.2329 96.6353 78.1671 96.7175 78.1434C96.7998 78.1197 96.8885 78.1416 96.9498 78.2009C97.923 79.1413 98.2677 82.1673 98.0036 87.4519C97.7935 91.6556 97.2349 96.178 97.0246 97.8805C96.6887 100.601 97.3873 104.793 98.0629 108.847C98.3329 110.467 98.5879 111.997 98.7694 113.391C99.399 118.229 99.2446 125.647 99.2429 125.721C99.2403 125.839 99.151 125.937 99.0333 125.951C99.0238 125.952 99.0143 125.952 99.0049 125.952ZM96.9036 78.9406C96.5933 80.4474 95.7259 85.1704 95.4542 92.0394C95.1614 99.4425 95.5228 110.859 98.7848 123.914C98.7907 121.409 98.7337 116.802 98.2977 113.452C98.1172 112.066 97.8629 110.539 97.5936 108.924C96.9125 104.837 96.2082 100.611 96.5525 97.823C96.7622 96.1252 97.3192 91.6151 97.5285 87.4285C97.7931 82.1353 97.3887 79.8704 96.9036 78.9406Z" fill="#2F3F82"/>
<path d="M96.7839 78.1518C96.7839 78.1518 100.647 77.85 101.388 79.2917C102.128 80.7335 98.9287 80.8121 96.7839 78.1518Z" fill="#2F3F82"/>
<path d="M109.69 137.127C109.69 137.127 108.741 148.321 107.203 153.603C108.653 156.402 109.817 158.62 110.428 159.378C111.698 160.951 112.015 159.221 113.443 155.917C113.706 155.308 114.213 153.974 114.87 152.163C115.034 150.615 115.084 149.5 115.084 149.5L109.69 137.127Z" fill="#1B1F3F"/>
<path d="M109.478 87.1121C109.478 87.1121 113.18 82.0791 114.238 79.2481C115.295 76.417 115.612 81.2403 116.141 82.0791C116.67 82.918 109.478 90.1529 109.478 87.1121Z" fill="#1B1F3F"/>
<path d="M107.064 50.1276C106.982 49.8116 106.533 49.7999 106.434 50.1111C106.3 50.5318 106.126 51.0551 105.91 51.659C105.697 59.3939 105.856 82.5997 106.621 96.7739C106.926 102.431 108.207 127.604 109.159 137.356C109.893 144.873 110.155 154.911 110.237 159.12C110.306 159.219 110.37 159.305 110.428 159.378C111.106 160.218 111.513 160.116 111.962 159.335C111.547 153.852 109.131 119.213 108.683 110.773C108.207 101.807 107.414 83.4037 106.938 77.5837C106.536 72.6749 107.039 55.8225 107.207 50.6663C107.158 50.4884 107.11 50.3089 107.064 50.1276Z" fill="#1B1F3F"/>
<path d="M109.374 92.0129C109.768 91.9665 110.161 91.8887 110.535 91.7589C110.691 91.7048 110.846 91.6495 110.998 91.5846C111.157 91.5167 111.311 91.4401 111.465 91.362C111.635 91.276 111.79 91.1572 111.939 91.0406C112.112 90.9054 112.301 90.7966 112.497 90.6988C112.695 90.6001 112.898 90.5038 113.106 90.4265C113.206 90.3893 113.304 90.3487 113.407 90.3206C113.443 90.3107 113.495 90.3002 113.503 90.3523C113.506 90.377 113.496 90.4069 113.491 90.4311C113.485 90.4589 113.478 90.4865 113.47 90.5139C113.349 90.9433 113.051 91.3273 112.689 91.5851C112.497 91.721 112.276 91.7983 112.055 91.8726C111.915 91.9195 111.774 91.9626 111.633 92.0033C111.476 92.0485 111.318 92.0906 111.157 92.1202C110.994 92.1503 110.83 92.1676 110.665 92.1817C110.285 92.2141 109.898 92.198 109.522 92.1284C109.472 92.1191 109.413 92.1139 109.366 92.0956C109.325 92.0799 109.328 92.0185 109.374 92.0129Z" fill="#1B1F3F"/>
<path d="M110.097 96.4389C110.637 96.2918 111.186 96.1762 111.738 96.0853C111.958 96.0491 112.179 96.0117 112.4 95.9853C112.646 95.9561 112.891 95.93 113.137 95.9062C113.314 95.8892 113.49 95.8699 113.667 95.8506C113.844 95.8313 114.02 95.811 114.198 95.8064C114.531 95.7978 114.867 95.8446 115.192 95.9202C115.502 95.9925 115.809 96.091 116.094 96.2344C116.128 96.2517 116.162 96.2698 116.196 96.2888C116.223 96.3041 116.268 96.3195 116.271 96.3558C116.274 96.3837 116.253 96.3984 116.23 96.4074C116.189 96.4232 116.147 96.4365 116.106 96.4493C115.951 96.4967 115.793 96.5327 115.634 96.5625C115.312 96.6232 114.985 96.6586 114.658 96.6764C114.397 96.6905 114.138 96.6752 113.879 96.6445C113.724 96.6262 113.569 96.6067 113.413 96.5927C113.133 96.5674 112.852 96.5601 112.571 96.55C112.36 96.5423 112.148 96.5351 111.937 96.5303C111.429 96.5187 110.92 96.5154 110.412 96.5194C110.33 96.5201 110.249 96.5208 110.167 96.5215C110.139 96.5218 110.097 96.5315 110.076 96.5073C110.056 96.4842 110.068 96.447 110.097 96.4389Z" fill="#1B1F3F"/>
<path d="M110.32 100.842C110.524 100.915 110.732 100.97 110.947 100.997C111.167 101.024 111.388 101.03 111.609 101.026C111.895 101.021 112.18 101.001 112.466 100.985C112.638 100.976 112.811 100.972 112.983 100.959C113.203 100.942 113.422 100.91 113.643 100.902C113.864 100.895 114.082 100.92 114.298 100.961C114.512 101.002 114.723 101.058 114.927 101.132C115.027 101.169 115.126 101.21 115.221 101.256C115.267 101.278 115.312 101.302 115.356 101.328C115.389 101.347 115.446 101.373 115.421 101.42C115.41 101.44 115.384 101.449 115.365 101.459C115.339 101.472 115.313 101.484 115.287 101.495C115.24 101.516 115.192 101.535 115.144 101.553C115.042 101.59 114.938 101.622 114.833 101.649C114.622 101.704 114.407 101.741 114.19 101.762C113.97 101.783 113.75 101.783 113.53 101.754C113.315 101.725 113.102 101.678 112.886 101.649C112.73 101.628 112.573 101.611 112.417 101.591C112.12 101.553 111.823 101.511 111.53 101.449C111.12 101.363 110.707 101.223 110.364 100.979C110.344 100.964 110.323 100.949 110.303 100.934C110.288 100.922 110.267 100.911 110.262 100.89C110.255 100.857 110.289 100.83 110.32 100.842Z" fill="#1B1F3F"/>
<path d="M110.851 106.781C111.4 106.677 111.96 106.84 112.464 107.048C112.969 107.255 113.459 107.502 113.937 107.763C114.179 107.894 114.416 108.035 114.657 108.17C114.827 108.265 114.998 108.36 115.167 108.459C115.344 108.561 115.516 108.671 115.68 108.794C115.895 108.955 116.096 109.136 116.285 109.328C116.473 109.518 116.65 109.719 116.813 109.932C116.895 110.04 116.975 110.152 117.047 110.267C117.082 110.324 117.118 110.382 117.151 110.441C117.166 110.469 117.182 110.497 117.197 110.526C117.208 110.548 117.23 110.577 117.225 110.603C117.213 110.672 117.123 110.621 117.087 110.607C117.024 110.581 116.962 110.555 116.9 110.527C116.78 110.473 116.661 110.414 116.545 110.352C116.304 110.226 116.069 110.09 115.836 109.949C115.601 109.806 115.368 109.655 115.147 109.49C114.927 109.326 114.721 109.145 114.512 108.968C114.185 108.691 113.839 108.439 113.489 108.19C113.172 107.964 112.851 107.744 112.526 107.529C112.082 107.235 111.597 106.95 111.059 106.88C110.992 106.872 110.924 106.873 110.858 106.864C110.811 106.858 110.799 106.79 110.851 106.781Z" fill="#1B1F3F"/>
<path d="M111.092 110.358C111.333 110.434 111.565 110.538 111.793 110.645C111.867 110.679 111.939 110.718 112.012 110.756C112.092 110.799 112.178 110.825 112.262 110.86C112.36 110.901 112.428 110.969 112.478 111.062C112.527 111.151 112.556 111.249 112.571 111.349C112.578 111.397 112.581 111.446 112.581 111.494C112.581 111.52 112.579 111.546 112.577 111.571C112.575 111.598 112.576 111.627 112.56 111.65C112.531 111.691 112.458 111.695 112.413 111.703C112.364 111.712 112.315 111.717 112.265 111.718C112.165 111.72 112.065 111.709 111.969 111.678C111.87 111.646 111.787 111.595 111.729 111.508C111.676 111.429 111.638 111.343 111.58 111.267C111.53 111.201 111.48 111.136 111.434 111.068C111.294 110.866 111.161 110.658 111.047 110.441C111.037 110.421 111.026 110.402 111.037 110.38C111.048 110.361 111.071 110.351 111.092 110.358Z" fill="#1B1F3F"/>
<path d="M106.305 113.745C105.706 113.938 105.111 114.145 104.526 114.38C104.295 114.473 104.065 114.566 103.837 114.666C103.585 114.776 103.334 114.886 103.085 115.002C102.675 115.193 102.297 115.441 101.889 115.635C101.723 115.714 101.552 115.782 101.381 115.848C101.21 115.913 101.037 115.976 100.863 116.032C100.687 116.089 100.51 116.143 100.33 116.189C100.247 116.211 100.163 116.233 100.079 116.251C100.035 116.26 99.9921 116.268 99.9486 116.276C99.9173 116.281 99.8644 116.301 99.8358 116.279C99.8004 116.253 99.8258 116.216 99.8452 116.19C99.8708 116.155 99.8974 116.121 99.9247 116.087C99.9809 116.018 100.04 115.951 100.101 115.885C100.222 115.754 100.357 115.63 100.495 115.516C100.779 115.281 101.084 115.07 101.41 114.897C101.816 114.683 102.257 114.566 102.692 114.426C102.973 114.335 103.254 114.247 103.538 114.166C103.765 114.102 103.994 114.044 104.225 113.993C104.786 113.869 105.351 113.765 105.922 113.699C106.014 113.688 106.105 113.679 106.197 113.67C106.22 113.668 106.243 113.666 106.266 113.664C106.283 113.663 106.301 113.659 106.317 113.67C106.345 113.689 106.338 113.734 106.305 113.745Z" fill="#1B1F3F"/>
<path d="M101.216 110.671C101.391 110.549 101.575 110.435 101.762 110.331C101.876 110.267 101.99 110.203 102.108 110.144C102.227 110.085 102.346 110.026 102.468 109.972C102.535 109.943 102.602 109.914 102.669 109.886C102.841 109.814 102.999 109.709 103.179 109.655C103.357 109.602 103.552 109.605 103.734 109.632C103.906 109.657 104.076 109.709 104.227 109.793C104.259 109.81 104.309 109.829 104.316 109.87C104.321 109.904 104.29 109.932 104.27 109.957C104.214 110.024 104.15 110.085 104.083 110.142C103.944 110.26 103.786 110.357 103.618 110.43C103.536 110.466 103.451 110.493 103.362 110.507C103.271 110.521 103.178 110.521 103.086 110.523C102.977 110.525 102.87 110.535 102.762 110.55C102.631 110.567 102.501 110.586 102.37 110.603C102.239 110.619 102.108 110.636 101.978 110.654C101.771 110.681 101.566 110.709 101.359 110.736C101.337 110.739 101.314 110.742 101.292 110.744C101.272 110.747 101.247 110.754 101.228 110.748C101.195 110.737 101.188 110.692 101.216 110.671Z" fill="#1B1F3F"/>
<path d="M99.2148 102.883C99.7089 102.776 100.214 102.703 100.718 102.663C100.93 102.646 101.142 102.631 101.354 102.623C101.559 102.616 101.764 102.617 101.968 102.619C102.17 102.621 102.371 102.622 102.572 102.622C102.719 102.623 102.865 102.624 103.011 102.638C103.158 102.651 103.303 102.678 103.447 102.714C103.725 102.784 104.002 102.89 104.256 103.024C104.381 103.09 104.504 103.161 104.619 103.243C104.675 103.282 104.729 103.323 104.781 103.367C104.813 103.393 104.9 103.459 104.826 103.495C104.8 103.508 104.763 103.511 104.734 103.516C104.696 103.523 104.658 103.53 104.62 103.535C104.552 103.545 104.484 103.551 104.416 103.558C104.268 103.572 104.119 103.578 103.971 103.58C103.681 103.585 103.384 103.574 103.097 103.531C102.74 103.476 102.397 103.36 102.042 103.293C101.831 103.254 101.617 103.224 101.405 103.192C101.22 103.165 101.035 103.14 100.85 103.117C100.391 103.06 99.9312 103.016 99.4695 102.983C99.3983 102.979 99.3271 102.974 99.2559 102.969C99.2302 102.967 99.1993 102.97 99.1858 102.943C99.1736 102.919 99.1881 102.889 99.2148 102.883Z" fill="#1B1F3F"/>
<path d="M100.921 98.1597C101.241 98.1265 101.564 98.1227 101.885 98.1354C102.119 98.1446 102.351 98.1683 102.583 98.1995C102.708 98.2162 102.833 98.2278 102.959 98.239C103.12 98.2533 103.272 98.2855 103.417 98.3588C103.679 98.4908 103.917 98.7061 104.059 98.9617C104.085 99.0077 104.136 99.083 104.063 99.1134C103.993 99.1429 103.912 99.1562 103.836 99.1687C103.677 99.1951 103.516 99.2008 103.354 99.1905C103.198 99.1806 103.042 99.1539 102.899 99.0908C102.75 99.0257 102.616 98.9321 102.469 98.8649C102.315 98.7951 102.157 98.7347 102.001 98.6706C101.885 98.6229 101.769 98.5751 101.652 98.529C101.427 98.44 101.2 98.3543 100.973 98.2675C100.948 98.2576 100.902 98.25 100.887 98.2232C100.872 98.1967 100.89 98.1629 100.921 98.1597Z" fill="#1B1F3F"/>
<path d="M98.9825 88.984C99.265 89.4728 99.6411 89.8956 100.076 90.2561C100.253 90.403 100.439 90.5399 100.632 90.6652C100.842 90.8013 101.058 90.9262 101.279 91.0436C101.553 91.1893 101.848 91.2858 102.138 91.3974C102.454 91.5198 102.756 91.6716 103.052 91.8376C103.353 92.0069 103.65 92.1912 103.92 92.4069C103.986 92.4595 104.052 92.5133 104.112 92.5727C104.134 92.5949 104.145 92.6292 104.114 92.6513C104.085 92.6716 104.023 92.6653 103.989 92.667C103.817 92.6757 103.644 92.6688 103.473 92.6534C103.13 92.6227 102.79 92.5563 102.46 92.4575C102.131 92.3591 101.825 92.2123 101.536 92.028C101.305 91.8805 101.079 91.7234 100.857 91.5637C100.766 91.4989 100.675 91.4337 100.589 91.3631C100.399 91.2082 100.216 91.0486 100.045 90.8744C99.8018 90.6282 99.5822 90.3596 99.3939 90.07C99.2938 89.9162 99.2005 89.755 99.1233 89.5883C99.0688 89.4704 99.0204 89.3519 98.974 89.2307C98.9554 89.182 98.9408 89.1317 98.9251 89.0819C98.9158 89.0527 98.8895 89.0069 98.9116 88.9784C98.93 88.9546 98.9681 88.9574 98.9825 88.984Z" fill="#1B1F3F"/>
<path d="M94.6606 75.2568C96.963 76.1514 104.903 79.1555 102.604 77.2559C100.626 75.6215 97.1701 73.4141 95.7415 72.5195C95.3739 73.4083 95.0122 74.3222 94.6606 75.2568Z" fill="#1B1F3F"/>
<path d="M99.7703 64.0132C101.399 64.9167 103.699 66.6357 103.133 65.5121C102.691 64.6373 101.637 62.7996 101.035 61.7607C100.638 62.4385 100.213 63.1927 99.7703 64.0132Z" fill="#1B1F3F"/>
<path d="M107.064 50.1277C107.064 50.1277 107.89 65.3146 112.967 77.8984C118.044 90.4821 122.169 100.077 122.01 108.414C121.852 116.751 113.126 145.536 112.967 157.805L115.823 153.243C115.823 153.243 116.616 144.277 118.996 134.368C121.376 124.458 126.294 108.257 123.597 95.3583C120.9 82.46 109.001 69.7189 109.001 53.832L107.064 50.1277Z" fill="#9E5151"/>
<path d="M113.709 159.697C113.58 159.697 113.474 159.595 113.471 159.466C113.469 159.374 113.468 159.277 113.468 159.177C113.468 159.017 113.471 158.846 113.476 158.67C113.48 158.54 113.591 158.437 113.721 158.441C113.852 158.445 113.956 158.554 113.951 158.685C113.946 158.856 113.943 159.022 113.943 159.177C113.943 159.273 113.945 159.367 113.947 159.456C113.95 159.586 113.845 159.694 113.714 159.697C113.712 159.697 113.71 159.697 113.709 159.697ZM113.784 157.708C113.777 157.708 113.771 157.707 113.764 157.707C113.634 157.697 113.536 157.583 113.546 157.453C113.576 157.079 113.615 156.672 113.663 156.244C113.677 156.114 113.794 156.02 113.925 156.035C114.055 156.049 114.15 156.166 114.135 156.295C114.089 156.719 114.05 157.121 114.02 157.49C114.01 157.614 113.906 157.708 113.784 157.708ZM114.045 155.306C114.035 155.306 114.024 155.306 114.014 155.304C113.884 155.288 113.792 155.169 113.809 155.04C113.858 154.661 113.915 154.257 113.976 153.84C113.995 153.711 114.116 153.622 114.245 153.64C114.375 153.659 114.465 153.779 114.446 153.908C114.386 154.323 114.33 154.724 114.28 155.101C114.265 155.22 114.163 155.306 114.045 155.306ZM114.394 152.916C114.381 152.916 114.369 152.915 114.356 152.913C114.227 152.893 114.138 152.772 114.158 152.643C114.218 152.263 114.284 151.861 114.352 151.449C114.374 151.32 114.497 151.233 114.626 151.255C114.755 151.276 114.843 151.397 114.822 151.526C114.753 151.937 114.688 152.338 114.628 152.716C114.61 152.833 114.509 152.916 114.394 152.916ZM114.79 150.533C114.777 150.533 114.763 150.532 114.75 150.529C114.62 150.507 114.533 150.385 114.556 150.257C114.621 149.877 114.692 149.477 114.766 149.066C114.789 148.938 114.912 148.852 115.041 148.875C115.171 148.898 115.257 149.02 115.234 149.148C115.161 149.559 115.09 149.958 115.024 150.337C115.004 150.452 114.904 150.533 114.79 150.533ZM115.215 148.155C115.201 148.155 115.187 148.153 115.172 148.151C115.043 148.127 114.957 148.005 114.981 147.876C115.053 147.481 115.126 147.084 115.2 146.687C115.224 146.558 115.348 146.473 115.477 146.497C115.606 146.521 115.692 146.644 115.668 146.772C115.594 147.169 115.521 147.566 115.449 147.961C115.428 148.075 115.328 148.155 115.215 148.155ZM115.656 145.778C115.642 145.778 115.627 145.777 115.612 145.774C115.483 145.75 115.398 145.627 115.422 145.499C115.496 145.102 115.571 144.706 115.645 144.312C115.669 144.184 115.793 144.1 115.922 144.124C116.051 144.148 116.137 144.271 116.112 144.399C116.038 144.793 115.964 145.189 115.89 145.585C115.868 145.699 115.768 145.778 115.656 145.778ZM116.102 143.405C116.088 143.405 116.073 143.403 116.058 143.401C115.929 143.377 115.844 143.253 115.868 143.125C115.943 142.726 116.017 142.33 116.09 141.938C116.114 141.81 116.239 141.726 116.368 141.749C116.497 141.773 116.582 141.896 116.558 142.024C116.485 142.416 116.411 142.813 116.336 143.212C116.314 143.325 116.215 143.405 116.102 143.405ZM116.545 141.03C116.531 141.03 116.516 141.028 116.502 141.026C116.372 141.002 116.287 140.879 116.31 140.751C116.389 140.323 116.46 139.935 116.526 139.563C116.549 139.435 116.673 139.35 116.802 139.373C116.932 139.395 117.018 139.518 116.995 139.646C116.928 140.018 116.857 140.408 116.778 140.836C116.757 140.95 116.657 141.03 116.545 141.03ZM116.971 138.651C116.957 138.651 116.944 138.65 116.93 138.648C116.801 138.626 116.714 138.504 116.736 138.375C116.808 137.958 116.876 137.558 116.937 137.186C116.958 137.057 117.081 136.97 117.21 136.991C117.34 137.012 117.428 137.133 117.407 137.262C117.345 137.636 117.278 138.037 117.205 138.455C117.185 138.57 117.085 138.651 116.971 138.651ZM117.363 136.268C117.35 136.268 117.337 136.267 117.324 136.264C117.195 136.243 117.107 136.122 117.128 135.993C117.19 135.622 117.263 135.22 117.345 134.799C117.37 134.671 117.495 134.587 117.624 134.612C117.753 134.636 117.837 134.76 117.812 134.888C117.731 135.306 117.659 135.703 117.598 136.07C117.578 136.186 117.477 136.268 117.363 136.268ZM117.821 133.896C117.805 133.896 117.788 133.895 117.771 133.891C117.643 133.864 117.561 133.739 117.588 133.611C117.667 133.242 117.755 132.844 117.85 132.429C117.879 132.302 118.006 132.222 118.134 132.251C118.262 132.279 118.343 132.406 118.314 132.533C118.22 132.946 118.132 133.342 118.054 133.709C118.03 133.82 117.931 133.896 117.821 133.896ZM118.355 131.541C118.337 131.541 118.319 131.539 118.301 131.534C118.173 131.505 118.094 131.378 118.124 131.251C118.21 130.886 118.302 130.502 118.406 130.075C118.437 129.948 118.565 129.87 118.693 129.901C118.82 129.931 118.899 130.059 118.868 130.185C118.765 130.611 118.673 130.995 118.587 131.359C118.561 131.467 118.463 131.541 118.355 131.541ZM118.924 129.193C118.906 129.193 118.887 129.191 118.868 129.186C118.74 129.155 118.662 129.028 118.693 128.901C118.788 128.515 118.885 128.124 118.983 127.728C119.015 127.601 119.144 127.524 119.271 127.555C119.399 127.586 119.477 127.714 119.445 127.841C119.347 128.237 119.25 128.628 119.155 129.013C119.129 129.121 119.031 129.193 118.924 129.193ZM119.505 126.848C119.487 126.848 119.467 126.846 119.448 126.842C119.321 126.81 119.243 126.683 119.274 126.556C119.37 126.169 119.467 125.778 119.564 125.384C119.596 125.257 119.724 125.18 119.852 125.211C119.979 125.242 120.058 125.37 120.026 125.496C119.929 125.891 119.832 126.282 119.736 126.669C119.709 126.776 119.612 126.848 119.505 126.848ZM120.083 124.503C120.065 124.503 120.046 124.501 120.027 124.496C119.899 124.466 119.821 124.338 119.852 124.212C119.951 123.807 120.046 123.413 120.136 123.039C120.166 122.912 120.295 122.833 120.422 122.864C120.55 122.894 120.629 123.021 120.599 123.148C120.509 123.523 120.413 123.918 120.314 124.323C120.288 124.431 120.191 124.503 120.083 124.503ZM120.647 122.155C120.629 122.155 120.611 122.152 120.592 122.148C120.464 122.119 120.385 121.992 120.415 121.865C120.508 121.467 120.6 121.071 120.687 120.69C120.717 120.563 120.844 120.483 120.972 120.512C121.1 120.541 121.18 120.667 121.151 120.794C121.064 121.177 120.972 121.573 120.878 121.972C120.852 122.081 120.755 122.155 120.647 122.155ZM121.185 119.8C121.168 119.8 121.151 119.798 121.134 119.795C121.006 119.767 120.924 119.641 120.953 119.513C121.041 119.115 121.127 118.719 121.209 118.335C121.237 118.208 121.363 118.126 121.491 118.153C121.62 118.18 121.702 118.306 121.675 118.433C121.592 118.818 121.506 119.216 121.417 119.615C121.393 119.725 121.294 119.8 121.185 119.8ZM121.69 117.437C121.674 117.437 121.658 117.435 121.642 117.432C121.514 117.406 121.43 117.281 121.456 117.154C121.538 116.755 121.617 116.357 121.692 115.971C121.717 115.843 121.842 115.759 121.971 115.784C122.1 115.808 122.184 115.932 122.159 116.06C122.084 116.448 122.004 116.848 121.923 117.247C121.9 117.359 121.801 117.437 121.69 117.437ZM122.15 115.065C122.136 115.065 122.121 115.064 122.107 115.061C121.978 115.038 121.892 114.915 121.915 114.787C121.988 114.386 122.059 113.987 122.124 113.601C122.146 113.473 122.269 113.386 122.398 113.408C122.528 113.429 122.615 113.551 122.593 113.68C122.527 114.068 122.457 114.469 122.383 114.871C122.363 114.985 122.262 115.065 122.15 115.065ZM122.553 112.687C122.541 112.687 122.529 112.686 122.516 112.684C122.387 112.664 122.298 112.543 122.318 112.414C122.38 112.013 122.44 111.613 122.494 111.226C122.512 111.097 122.632 111.007 122.762 111.025C122.892 111.043 122.983 111.162 122.965 111.291C122.91 111.681 122.851 112.083 122.788 112.487C122.77 112.603 122.668 112.687 122.553 112.687ZM122.888 110.298C122.878 110.298 122.868 110.297 122.859 110.296C122.728 110.28 122.635 110.163 122.651 110.033C122.701 109.63 122.747 109.228 122.788 108.838C122.801 108.708 122.918 108.614 123.049 108.628C123.179 108.641 123.274 108.757 123.261 108.887C123.22 109.279 123.174 109.684 123.124 110.09C123.109 110.21 123.006 110.298 122.888 110.298ZM123.138 107.897C123.131 107.897 123.124 107.897 123.118 107.896C122.987 107.885 122.889 107.771 122.9 107.641C122.934 107.237 122.963 106.834 122.987 106.443C122.995 106.313 123.107 106.213 123.238 106.221C123.369 106.229 123.469 106.341 123.462 106.471C123.438 106.865 123.408 107.272 123.374 107.68C123.364 107.804 123.26 107.897 123.138 107.897ZM123.272 105.487C123.271 105.487 123.269 105.487 123.268 105.487C123.137 105.485 123.032 105.377 123.035 105.247C123.038 105.072 123.04 104.895 123.04 104.721C123.04 104.498 123.037 104.273 123.031 104.051C123.028 103.92 123.132 103.812 123.264 103.809C123.395 103.805 123.504 103.909 123.507 104.04C123.512 104.265 123.515 104.494 123.515 104.721C123.515 104.898 123.513 105.078 123.51 105.256C123.508 105.385 123.402 105.487 123.272 105.487ZM123.214 103.077C123.09 103.077 122.986 102.981 122.977 102.857C122.951 102.462 122.915 102.061 122.872 101.666C122.858 101.536 122.952 101.42 123.083 101.406C123.214 101.392 123.331 101.485 123.345 101.615C123.389 102.017 123.425 102.424 123.452 102.825C123.461 102.956 123.361 103.068 123.23 103.077C123.225 103.077 123.22 103.077 123.214 103.077ZM122.953 100.682C122.837 100.682 122.736 100.598 122.718 100.481C122.66 100.092 122.592 99.6956 122.517 99.3017C122.493 99.1736 122.578 99.0501 122.707 99.026C122.836 99.0017 122.96 99.0861 122.985 99.2142C123.061 99.614 123.129 100.017 123.189 100.411C123.208 100.54 123.119 100.66 122.989 100.68C122.977 100.681 122.965 100.682 122.953 100.682ZM122.504 98.3128C122.395 98.3128 122.297 98.2384 122.272 98.1287C122.185 97.7469 122.089 97.3547 121.986 96.963C121.953 96.8369 122.029 96.708 122.157 96.6751C122.284 96.6422 122.414 96.7178 122.447 96.844C122.551 97.2406 122.648 97.6378 122.736 98.0247C122.765 98.1519 122.685 98.2782 122.557 98.3069C122.539 98.3109 122.521 98.3128 122.504 98.3128ZM121.892 95.9776C121.79 95.9776 121.695 95.9108 121.664 95.8078C121.554 95.4331 121.435 95.0473 121.31 94.661C121.269 94.5368 121.338 94.4039 121.463 94.3641C121.588 94.3241 121.722 94.3925 121.762 94.5166C121.889 94.9069 122.009 95.2967 122.121 95.6753C122.158 95.8004 122.085 95.9315 121.959 95.9681C121.937 95.9745 121.915 95.9776 121.892 95.9776ZM121.151 93.6812C121.053 93.6812 120.961 93.6199 120.926 93.5223C120.798 93.1556 120.661 92.775 120.519 92.3912C120.473 92.2689 120.536 92.1332 120.66 92.0881C120.783 92.043 120.92 92.1056 120.965 92.2279C121.109 92.6146 121.247 92.9981 121.376 93.3678C121.419 93.4909 121.353 93.6254 121.229 93.6681C121.203 93.6769 121.177 93.6812 121.151 93.6812ZM120.312 91.4177C120.217 91.4177 120.127 91.3604 120.09 91.2669C119.95 90.9083 119.8 90.532 119.645 90.1483C119.596 90.0274 119.655 89.8899 119.776 89.8411C119.898 89.7925 120.037 89.8509 120.086 89.9719C120.242 90.3575 120.393 90.7358 120.534 91.0963C120.581 91.2179 120.52 91.3546 120.398 91.4017C120.37 91.4126 120.341 91.4177 120.312 91.4177ZM119.405 89.1801C119.312 89.1801 119.223 89.1253 119.185 89.0345C119.036 88.6791 118.882 88.3161 118.715 87.9246C118.663 87.8046 118.72 87.666 118.841 87.615C118.961 87.5639 119.101 87.6199 119.152 87.7398C119.321 88.1325 119.475 88.4967 119.624 88.8534C119.675 88.9737 119.617 89.1119 119.496 89.1619C119.466 89.1743 119.435 89.1801 119.405 89.1801ZM118.455 86.9599C118.363 86.9599 118.275 86.9066 118.236 86.8175C118.087 86.4739 117.928 86.1123 117.752 85.7123C117.699 85.5928 117.754 85.4537 117.875 85.4014C117.995 85.3492 118.135 85.4037 118.188 85.5232C118.364 85.9238 118.523 86.2859 118.673 86.6301C118.725 86.7498 118.669 86.8887 118.549 86.9404C118.518 86.9537 118.486 86.9599 118.455 86.9599ZM117.482 84.7492C117.39 84.7492 117.303 84.6965 117.264 84.608C117.136 84.318 117.006 84.0257 116.875 83.731L116.775 83.5041C116.722 83.3848 116.776 83.2455 116.897 83.193C117.017 83.1405 117.157 83.1946 117.21 83.3139L117.311 83.5408C117.441 83.8356 117.571 84.128 117.7 84.4181C117.752 84.5374 117.698 84.6767 117.578 84.7292C117.546 84.7427 117.514 84.7492 117.482 84.7492ZM116.503 82.541C116.412 82.541 116.325 82.4883 116.285 82.3998C116.124 82.0352 115.962 81.6668 115.798 81.2943C115.745 81.1748 115.8 81.0357 115.921 80.9836C116.041 80.9315 116.181 80.986 116.234 81.1055C116.397 81.4777 116.56 81.8458 116.721 82.21C116.774 82.3294 116.719 82.4687 116.599 82.5211C116.568 82.5346 116.535 82.541 116.503 82.541ZM115.532 80.3297C115.44 80.3297 115.352 80.2764 115.314 80.1872C115.145 79.8005 114.988 79.4377 114.833 79.078C114.782 78.9581 114.838 78.8194 114.959 78.7682C115.079 78.717 115.219 78.7727 115.271 78.8926C115.425 79.2516 115.582 79.6138 115.75 79.9999C115.802 80.1195 115.747 80.2585 115.626 80.3102C115.595 80.3234 115.563 80.3297 115.532 80.3297ZM114.578 78.1109C114.485 78.1109 114.397 78.0567 114.358 77.9664C114.199 77.5905 114.041 77.2155 113.89 76.852C113.839 76.7315 113.897 76.5934 114.019 76.5436C114.14 76.4938 114.279 76.551 114.329 76.6714C114.48 77.0341 114.638 77.4082 114.797 77.7832C114.848 77.9034 114.791 78.0418 114.67 78.0924C114.64 78.105 114.608 78.1109 114.578 78.1109ZM113.648 75.8818C113.555 75.8818 113.466 75.8262 113.428 75.7345C113.274 75.3583 113.121 74.9812 112.974 74.6138C112.925 74.4927 112.985 74.3554 113.107 74.3072C113.229 74.2591 113.367 74.3182 113.416 74.4393C113.563 74.8056 113.715 75.1816 113.869 75.5569C113.918 75.6776 113.86 75.8153 113.738 75.8644C113.709 75.8762 113.678 75.8818 113.648 75.8818ZM112.75 73.6401C112.655 73.6401 112.565 73.5829 112.528 73.4894C112.38 73.1107 112.234 72.7306 112.094 72.3599C112.048 72.2379 112.11 72.1018 112.233 72.056C112.356 72.0103 112.493 72.0721 112.539 72.1941C112.679 72.5632 112.824 72.9415 112.972 73.3186C113.019 73.4402 112.959 73.5769 112.836 73.6241C112.808 73.635 112.779 73.6401 112.75 73.6401ZM111.897 71.3813C111.8 71.3813 111.708 71.3215 111.673 71.2253C111.534 70.8423 111.397 70.4587 111.267 70.0853C111.224 69.9621 111.29 69.8276 111.414 69.785C111.538 69.7424 111.674 69.8078 111.717 69.9309C111.846 70.3024 111.982 70.684 112.121 71.0651C112.165 71.1877 112.101 71.323 111.978 71.3672C111.951 71.3767 111.924 71.3813 111.897 71.3813ZM111.103 69.1016C111.003 69.1016 110.91 69.0387 110.877 68.9395C110.749 68.5529 110.623 68.1654 110.504 67.7876C110.465 67.6632 110.535 67.5308 110.66 67.4919C110.786 67.4531 110.919 67.5224 110.958 67.6469C111.076 68.0223 111.201 68.4075 111.329 68.7916C111.37 68.9154 111.302 69.0488 111.177 69.0897C111.153 69.0978 111.127 69.1016 111.103 69.1016ZM110.379 66.7992C110.276 66.7992 110.181 66.7325 110.151 66.6295C110.035 66.2383 109.923 65.8465 109.818 65.4649C109.784 65.3392 109.858 65.2094 109.985 65.1751C110.112 65.1407 110.243 65.2149 110.277 65.3406C110.381 65.7193 110.492 66.1082 110.607 66.4966C110.644 66.6217 110.572 66.7529 110.446 66.7896C110.424 66.7961 110.401 66.7992 110.379 66.7992ZM109.74 64.4723C109.633 64.4723 109.536 64.4007 109.509 64.2935C109.409 63.8969 109.314 63.5005 109.226 63.1152C109.197 62.988 109.278 62.8616 109.406 62.8329C109.534 62.804 109.661 62.8839 109.69 63.0111C109.777 63.3928 109.871 63.7857 109.971 64.1788C110.003 64.3053 109.925 64.4335 109.798 64.4651C109.778 64.47 109.759 64.4723 109.74 64.4723ZM109.205 62.1197C109.094 62.1197 108.995 62.0421 108.972 61.9298C108.891 61.5285 108.817 61.1273 108.75 60.7373C108.728 60.6088 108.815 60.4869 108.945 60.4651C109.074 60.4432 109.197 60.5297 109.219 60.6583C109.285 61.0438 109.359 61.4406 109.439 61.8375C109.464 61.9653 109.381 62.0897 109.252 62.1151C109.236 62.1182 109.22 62.1197 109.205 62.1197ZM108.799 59.742C108.682 59.742 108.58 59.6564 108.564 59.5381C108.508 59.134 108.459 58.7285 108.418 58.3329C108.404 58.2032 108.499 58.0873 108.63 58.0739C108.761 58.0606 108.878 58.1549 108.891 58.2846C108.931 58.6749 108.98 59.075 109.035 59.4737C109.053 59.6029 108.962 59.722 108.832 59.7398C108.821 59.7413 108.81 59.742 108.799 59.742ZM108.552 57.3433C108.428 57.3433 108.323 57.2476 108.315 57.1229C108.288 56.7208 108.269 56.3241 108.256 55.9101C108.252 55.7797 108.355 55.6709 108.486 55.667C108.618 55.6634 108.727 55.7654 108.731 55.8958C108.744 56.3041 108.763 56.6952 108.789 57.0917C108.798 57.2217 108.699 57.3342 108.568 57.3428C108.562 57.3431 108.557 57.3433 108.552 57.3433ZM108.475 54.9334C108.344 54.9334 108.238 54.8281 108.238 54.6979C108.237 54.6488 108.237 54.6002 108.237 54.5521C108.237 54.3544 108.238 54.1646 108.239 53.9818C108.24 53.8127 108.24 53.6497 108.24 53.4922C108.24 53.3618 108.347 53.2555 108.478 53.2555C108.61 53.2555 108.716 53.3606 108.716 53.4909C108.716 53.6504 108.715 53.8141 108.715 53.9838C108.714 54.166 108.713 54.3552 108.713 54.5521C108.713 54.5999 108.713 54.6481 108.713 54.6968C108.713 54.8272 108.607 54.9331 108.476 54.9334C108.476 54.9334 108.476 54.9334 108.475 54.9334ZM108.447 52.5212C108.323 52.5212 108.219 52.426 108.21 52.3015C108.203 52.2006 108.194 52.1029 108.184 52.0111C108.153 51.7232 108.113 51.4248 108.066 51.1241C108.045 50.9954 108.134 50.8745 108.264 50.8543C108.393 50.8339 108.515 50.922 108.535 51.0508C108.584 51.359 108.625 51.6651 108.657 51.9608C108.668 52.0584 108.677 52.162 108.684 52.2688C108.693 52.3989 108.595 52.5116 108.463 52.5206C108.458 52.521 108.452 52.5212 108.447 52.5212ZM108.077 50.1372C107.967 50.1372 107.868 50.0615 107.844 49.9509C107.762 49.5696 107.666 49.1787 107.561 48.789C107.527 48.6631 107.602 48.5336 107.729 48.4999C107.856 48.4661 107.986 48.5408 108.02 48.6668C108.128 49.0639 108.225 49.4625 108.309 49.8513C108.337 49.9788 108.255 50.1044 108.127 50.1319C108.11 50.1355 108.093 50.1372 108.077 50.1372ZM107.448 47.8055C107.347 47.8055 107.254 47.7415 107.222 47.6412C106.999 46.9499 106.827 46.5207 106.825 46.5164C106.776 46.3954 106.836 46.258 106.957 46.2096C107.079 46.1612 107.218 46.22 107.267 46.341C107.274 46.3589 107.447 46.7886 107.675 47.4975C107.715 47.6217 107.646 47.7546 107.52 47.7942C107.496 47.8018 107.472 47.8055 107.448 47.8055Z" fill="#8C4949"/>
<path d="M140.96 117.35C140.96 117.35 136.111 112.397 134.642 109.338C133.173 106.279 127.002 99.724 124.945 98.9957C122.888 98.2673 120.39 98.85 119.655 100.307C118.921 101.763 119.802 105.551 122.153 108.464C124.504 111.378 125.533 114.291 126.12 119.244C126.708 124.196 128.324 134.685 137.14 138.326C145.956 141.968 149.188 124.925 140.96 117.35Z" fill="#F6AF9A"/>
<path d="M124.82 108.344C124.793 108.344 124.766 108.335 124.743 108.317C124.692 108.275 124.684 108.199 124.727 108.148C124.744 108.127 125.167 107.621 125.942 107.045C126.656 106.514 127.815 105.825 129.281 105.557C129.346 105.545 129.409 105.588 129.421 105.653C129.433 105.718 129.39 105.78 129.324 105.792C126.606 106.288 124.929 108.28 124.913 108.3C124.889 108.329 124.854 108.344 124.82 108.344Z" fill="#EA9486"/>
<path d="M125.995 110.457C125.971 110.457 125.947 110.449 125.926 110.434C125.871 110.396 125.859 110.321 125.897 110.268C125.915 110.243 126.334 109.666 127.097 109.036C127.803 108.453 128.947 107.718 130.388 107.523C130.454 107.514 130.515 107.56 130.524 107.625C130.533 107.691 130.487 107.751 130.421 107.76C127.767 108.118 126.11 110.384 126.093 110.407C126.07 110.439 126.033 110.457 125.995 110.457Z" fill="#EA9486"/>
<path d="M127.024 112.497C126.997 112.497 126.969 112.487 126.946 112.468C126.896 112.426 126.889 112.35 126.932 112.3C126.951 112.278 127.408 111.747 128.227 111.177C128.983 110.651 130.202 109.994 131.716 109.854C131.782 109.848 131.841 109.896 131.847 109.962C131.854 110.027 131.805 110.086 131.739 110.092C128.939 110.352 127.134 112.433 127.116 112.454C127.092 112.482 127.058 112.497 127.024 112.497Z" fill="#EA9486"/>
<path d="M124.456 98.9007C124.452 98.8948 124.448 98.891 124.446 98.8886C123.21 97.6181 120.462 98.489 119.728 99.9457C119.554 100.291 119.405 100.834 119.41 101.398C119.951 102.234 120.756 103.658 121.481 104.176C122.618 104.988 125.707 102.421 126.063 101.8C126.344 101.309 125.141 99.8399 124.456 98.9007Z" fill="#FFBDAE"/>
<path d="M126.063 101.8C126.139 101.666 126.105 101.46 126.002 101.211C122.921 100.78 121.732 103.35 121.44 104.145C121.454 104.156 121.468 104.166 121.481 104.176C122.618 104.988 125.707 102.421 126.063 101.8Z" fill="#FCB1A4"/>
<path opacity="0.1" d="M121.71 98.4485C122.167 98.9856 123.8 100.93 125.056 102.802C125.515 102.428 125.872 102.075 126.021 101.865C125.42 101.008 124.384 99.5868 123.268 98.3096C122.771 98.2305 122.226 98.2881 121.71 98.4485Z" fill="white"/>
<path opacity="0.1" d="M120.958 98.7663C121.971 99.8727 123.733 102.239 124.474 103.247C124.595 103.161 124.713 103.073 124.826 102.986C123.493 100.921 121.823 99.068 121.365 98.5725C121.225 98.6299 121.089 98.6948 120.958 98.7663Z" fill="white"/>
<path d="M119.41 101.398C119.643 101.733 119.864 102.077 120.092 102.416C120.315 102.748 120.544 103.077 120.794 103.39C120.916 103.542 121.043 103.691 121.181 103.83C121.25 103.899 121.322 103.966 121.397 104.028C121.469 104.087 121.543 104.144 121.628 104.183C121.801 104.264 121.998 104.273 122.186 104.253C122.386 104.231 122.582 104.175 122.771 104.107C123.146 103.972 123.5 103.782 123.838 103.574C124.172 103.369 124.494 103.145 124.803 102.906C125.115 102.663 125.421 102.408 125.7 102.127C125.77 102.056 125.839 101.984 125.903 101.906C125.96 101.838 126.023 101.767 126.031 101.675C126.039 101.577 126.013 101.476 125.984 101.382C125.955 101.289 125.918 101.198 125.877 101.108C125.713 100.742 125.499 100.399 125.28 100.063C125.057 99.7215 124.82 99.3891 124.572 99.0648C124.513 98.9863 124.452 98.9084 124.388 98.8325C124.672 99.1348 124.93 99.4612 125.177 99.7932C125.425 100.126 125.662 100.468 125.863 100.831C125.962 101.008 126.053 101.192 126.114 101.386C126.142 101.478 126.164 101.574 126.161 101.671C126.158 101.772 126.114 101.853 126.054 101.934C125.935 102.095 125.791 102.24 125.647 102.379C125.499 102.523 125.344 102.661 125.187 102.794C124.869 103.061 124.535 103.31 124.189 103.539C123.847 103.766 123.488 103.972 123.112 104.136C122.74 104.298 122.321 104.439 121.909 104.398C121.813 104.388 121.718 104.367 121.628 104.332C121.536 104.295 121.455 104.243 121.378 104.181C121.22 104.055 121.079 103.907 120.948 103.754C120.68 103.443 120.448 103.101 120.227 102.755C119.997 102.397 119.783 102.029 119.567 101.662C119.515 101.574 119.463 101.486 119.41 101.398Z" fill="#EA9486"/>
<path d="M73.4192 112.675C73.4192 112.675 81.8448 105.293 88.311 103.156C94.7772 101.019 109.277 95.7743 111.041 99.4653C112.804 103.156 109.669 106.07 106.534 107.042C103.399 108.013 98.892 109.373 96.9326 110.927C94.9731 112.481 93.2096 112.481 92.6218 114.229C92.0339 115.978 92.4258 122.971 84.0002 128.411C75.5746 133.85 65.1895 127.051 73.4192 112.675Z" fill="#F6AF9A"/>
<path d="M104.746 99.7567C103.815 100.582 105.289 104.484 105.975 104.873C106.567 105.208 109.599 104.443 110.993 103.693C111.652 102.488 111.797 101.048 111.041 99.4653C110.895 99.1603 110.662 98.9167 110.354 98.7269C110.125 98.6801 109.873 98.6501 109.596 98.6396C109.596 98.6397 105.677 98.9311 104.746 99.7567Z" fill="#FFBDAE"/>
<path d="M105.975 104.873C106.074 104.929 106.239 104.954 106.454 104.954C108.12 101.917 105.688 100.078 104.95 99.6104C104.872 99.6572 104.803 99.7061 104.746 99.7569C103.815 100.583 105.289 104.485 105.975 104.873Z" fill="#FCB1A4"/>
<path opacity="0.1" d="M111.041 99.4655C110.989 99.3576 110.926 99.2579 110.853 99.165C109.345 99.4048 106.094 99.9489 104.462 100.429C104.419 100.81 104.469 101.287 104.576 101.788C105.674 101.512 109.038 100.687 111.371 100.332C111.29 100.048 111.181 99.7594 111.041 99.4655Z" fill="white"/>
<path opacity="0.1" d="M104.844 102.762C107.636 102.003 110.304 101.572 111.546 101.394C111.539 101.249 111.526 101.103 111.505 100.956C108.976 101.218 105.715 102.058 104.71 102.327C104.752 102.473 104.796 102.618 104.844 102.762Z" fill="white"/>
<path d="M110.354 98.7269C110.227 98.7038 110.099 98.6874 109.97 98.6761C109.847 98.6652 109.714 98.6647 109.597 98.6559C109.073 98.7075 108.551 98.7754 108.03 98.8554C107.518 98.9342 107.006 99.024 106.501 99.1424C106.252 99.2008 106.004 99.2671 105.76 99.3446C105.524 99.4197 105.288 99.5066 105.07 99.6255C104.982 99.6735 104.898 99.7282 104.82 99.7907C104.745 99.851 104.688 99.9296 104.647 100.016C104.542 100.24 104.522 100.5 104.524 100.744C104.529 101.259 104.639 101.772 104.777 102.267C104.913 102.76 105.086 103.245 105.298 103.712C105.401 103.94 105.514 104.166 105.645 104.379C105.708 104.481 105.776 104.581 105.855 104.672C105.892 104.716 105.933 104.758 105.98 104.792C106.025 104.824 106.076 104.843 106.129 104.855C106.251 104.884 106.38 104.888 106.505 104.886C106.635 104.885 106.765 104.876 106.895 104.863C107.153 104.838 107.409 104.796 107.663 104.748C108.176 104.649 108.683 104.522 109.184 104.375C109.684 104.228 110.179 104.058 110.658 103.85C110.771 103.801 110.883 103.749 110.993 103.693C110.515 103.964 109.999 104.168 109.481 104.351C108.954 104.536 108.416 104.694 107.871 104.818C107.596 104.88 107.319 104.934 107.04 104.973C106.771 105.01 106.49 105.042 106.219 105.01C106.086 104.995 105.962 104.962 105.857 104.875C105.758 104.793 105.677 104.688 105.603 104.583C105.452 104.366 105.326 104.13 105.212 103.892C104.975 103.398 104.784 102.879 104.634 102.352C104.484 101.823 104.367 101.267 104.369 100.715C104.37 100.443 104.4 100.153 104.533 99.9109C104.639 99.7177 104.822 99.5946 105.014 99.4941C105.255 99.3682 105.514 99.2773 105.775 99.201C106.042 99.1227 106.314 99.0591 106.587 99.0024C107.142 98.887 107.706 98.8054 108.27 98.7408C108.556 98.7081 108.842 98.6808 109.129 98.6572C109.27 98.6455 109.412 98.635 109.553 98.6259C109.684 98.6176 109.82 98.6385 109.949 98.6552C110.085 98.6728 110.22 98.6966 110.354 98.7269Z" fill="#EA9486"/>
<path d="M95.2461 107.998C95.2066 107.998 95.1679 107.979 95.1449 107.943C93.5419 105.48 93.2816 103.375 93.2792 103.354C93.2716 103.288 93.3189 103.229 93.3849 103.221C93.4507 103.214 93.5107 103.261 93.5184 103.326C93.5208 103.347 93.7767 105.4 95.3472 107.814C95.3832 107.869 95.3672 107.943 95.3113 107.979C95.2912 107.992 95.2685 107.998 95.2461 107.998Z" fill="#EA9486"/>
<path d="M97.4146 106.963C97.3711 106.963 97.329 106.939 97.3076 106.898C96.1885 104.759 95.6952 102.432 95.6903 102.409C95.6769 102.344 95.7187 102.281 95.7838 102.267C95.849 102.254 95.9126 102.296 95.9261 102.36C95.9309 102.383 96.4181 104.679 97.5214 106.788C97.552 106.847 97.529 106.919 97.47 106.949C97.4522 106.959 97.4332 106.963 97.4146 106.963Z" fill="#EA9486"/>
<path d="M99.5026 106.565C99.4517 106.565 99.4045 106.532 99.388 106.482C98.6747 104.282 97.7931 102.052 97.7843 102.03C97.76 101.969 97.7904 101.899 97.8523 101.875C97.9141 101.851 97.984 101.881 98.0084 101.942C98.0172 101.965 98.9015 104.201 99.6172 106.409C99.6376 106.471 99.6028 106.539 99.5395 106.559C99.5272 106.563 99.5148 106.565 99.5026 106.565Z" fill="#EA9486"/>
</svg>
