

<svg width="63" height="44" viewBox="0 0 63 44" fill="none" xmlns="http://www.w3.org/2000/svg">
<path d="M56 11.55V7C56 6.46957 55.7893 5.96086 55.4142 5.58579C55.0391 5.21071 54.5304 5 54 5H31C30.4696 5 29.9609 4.78929 29.5858 4.41421C29.2107 4.03914 29 3.53043 29 3C29 2.46957 28.7893 1.96086 28.4142 1.58579C28.0391 1.21071 27.5304 1 27 1H7C6.46957 1 5.96086 1.21071 5.58579 1.58579C5.21071 1.96086 5 2.46957 5 3V41C5 41.5304 5.21071 42.0391 5.58579 42.4142C5.96086 42.7893 6.46957 43 7 43" stroke="#54596E" stroke-width="2" stroke-linecap="round" stroke-linejoin="round"/>
<path d="M60 12H13C12.4696 12 11.9609 12.2107 11.5858 12.5858C11.2107 12.9609 11 13.4696 11 14L5 41C5 41.5304 5.21071 42.0391 5.58579 42.4142C5.96086 42.7893 6.46957 43 7 43H54C54.5304 43 55.0391 42.7893 55.4142 42.4142C55.7893 42.0391 56 41.5304 56 41L62 14C62 13.4696 61.7893 12.9609 61.4142 12.5858C61.0391 12.2107 60.5304 12 60 12Z" stroke="#54596E" stroke-width="2" stroke-linecap="round" stroke-linejoin="round"/>
<path d="M30.86 31.9999C31.5424 31.3484 32.3496 30.8416 33.2329 30.51C34.1162 30.1783 35.0574 30.0286 36 30.0699C36.936 30.0341 37.8696 30.1864 38.7456 30.5179C39.6217 30.8494 40.4223 31.3534 41.1 31.9999" stroke="#54596E" stroke-width="2" stroke-linecap="round" stroke-linejoin="round"/>
<path d="M44 25C45.1046 25 46 24.1046 46 23C46 21.8954 45.1046 21 44 21C42.8954 21 42 21.8954 42 23C42 24.1046 42.8954 25 44 25Z" fill="#54596E"/>
<path d="M29 25C30.1046 25 31 24.1046 31 23C31 21.8954 30.1046 21 29 21C27.8954 21 27 21.8954 27 23C27 24.1046 27.8954 25 29 25Z" fill="#54596E"/>
<path d="M1 43H17" stroke="#54596E" stroke-width="2" stroke-linecap="round" stroke-linejoin="round"/>
</svg>
