<svg width="40" height="41" viewBox="0 0 40 41" fill="none" xmlns="http://www.w3.org/2000/svg">
<circle cx="20" cy="20.5" r="20" fill="#14A800" fill-opacity="0.03"/>
<g clip-path="url(#clip0_118_8081)">
<path d="M17.69 21.2791H17.4331C17.3996 21.2811 17.3661 21.2758 17.3349 21.2636C17.3036 21.2514 17.2754 21.2327 17.2521 21.2086C17.2287 21.1845 17.2109 21.1556 17.1997 21.124C17.1886 21.0924 17.1844 21.0587 17.1875 21.0253C17.1853 20.9927 17.1903 20.9601 17.2019 20.9296C17.2136 20.8991 17.2317 20.8715 17.255 20.8486C17.2783 20.8258 17.3063 20.8083 17.3371 20.7973C17.3678 20.7862 17.4006 20.782 17.4331 20.7848H18.1528C18.2522 20.7848 18.3476 20.7453 18.418 20.675C18.4883 20.6047 18.5278 20.5093 18.5278 20.4098C18.5278 20.3104 18.4883 20.215 18.418 20.1447C18.3476 20.0743 18.2522 20.0348 18.1528 20.0348H18.0911V19.75C18.0911 19.6505 18.0516 19.5552 17.9813 19.4848C17.9109 19.4145 17.8155 19.375 17.7161 19.375C17.6166 19.375 17.5212 19.4145 17.4509 19.4848C17.3806 19.5552 17.3411 19.6505 17.3411 19.75V20.0392C17.0916 20.0534 16.8576 20.1644 16.6888 20.3486C16.52 20.5328 16.4298 20.7756 16.4375 21.0253C16.4342 21.1574 16.4576 21.2887 16.5063 21.4114C16.5551 21.5342 16.6282 21.6458 16.7212 21.7396C16.8142 21.8333 16.9252 21.9073 17.0476 21.9571C17.1699 22.0068 17.301 22.0313 17.4331 22.0291H17.69C17.7228 22.0248 17.7561 22.028 17.7875 22.0384C17.8189 22.0487 17.8476 22.066 17.8714 22.089C17.8952 22.112 17.9134 22.1401 17.9249 22.1711C17.9363 22.2021 17.9406 22.2353 17.9375 22.2683C17.9399 22.3017 17.9352 22.3353 17.9238 22.3668C17.9123 22.3984 17.8943 22.4271 17.8709 22.4512C17.8475 22.4753 17.8193 22.4941 17.7881 22.5065C17.757 22.5189 17.7235 22.5246 17.69 22.5231H16.9702C16.8707 22.5231 16.7754 22.5626 16.705 22.633C16.6347 22.7033 16.5952 22.7987 16.5952 22.8981C16.5952 22.9976 16.6347 23.093 16.705 23.1633C16.7754 23.2336 16.8707 23.2731 16.9702 23.2731H17.3411V23.5C17.3411 23.5995 17.3806 23.6948 17.4509 23.7652C17.5212 23.8355 17.6166 23.875 17.7161 23.875C17.8155 23.875 17.9109 23.8355 17.9812 23.7652C18.0516 23.6948 18.0911 23.5995 18.0911 23.5V23.1948C18.2237 23.1403 18.342 23.0561 18.4369 22.9487C18.6004 22.7599 18.6895 22.518 18.6875 22.2682C18.6913 22.1366 18.6681 22.0056 18.6192 21.8832C18.5704 21.7609 18.4969 21.65 18.4034 21.5572C18.3099 21.4645 18.1983 21.3919 18.0756 21.3441C17.9528 21.2963 17.8216 21.2741 17.69 21.2791V21.2791ZM31.0921 28.7932C30.6092 29.4547 29.0382 30.0625 26.9375 30.0625C24.8367 30.0625 23.2657 29.4547 22.7828 28.7932C22.4596 28.6254 22.1603 28.4151 21.8928 28.1679C21.8814 28.2364 21.8754 28.3056 21.875 28.375C21.875 29.7646 24.0514 30.8125 26.9375 30.8125C29.8236 30.8125 32 29.7646 32 28.375C31.9995 28.3056 31.9935 28.2364 31.9821 28.1679C31.7146 28.4151 31.4153 28.6254 31.0921 28.7932V28.7932Z" fill="#14A800"/>
<path d="M8.7153 16C8.52586 16 8.34416 16.0752 8.21006 16.209C8.07596 16.3428 8.00042 16.5243 8 16.7137V26.5363C8.00042 26.7257 8.07596 26.9072 8.21006 27.041C8.34416 27.1748 8.52586 27.25 8.7153 27.25H21.2614C21.1706 27.0104 21.1243 26.7562 21.125 26.5H11.5238C11.346 25.8344 10.9961 25.2274 10.5091 24.7401C10.0222 24.2528 9.41544 23.9023 8.75 23.724V19.526C9.41544 19.3477 10.0222 18.9972 10.5091 18.5099C10.9961 18.0226 11.346 17.4156 11.5238 16.75H21.1578C21.1928 16.5546 21.2554 16.3652 21.3437 16.1874C21.3135 16.1261 21.2856 16.0638 21.2614 16H8.7153ZM10.7401 26.5H8.75V24.5033C9.21318 24.6602 9.63381 24.9221 9.97904 25.2685C10.3243 25.6148 10.5848 26.0363 10.7401 26.5V26.5ZM8.75 18.7467V16.75H10.7401C10.5848 17.2137 10.3243 17.6352 9.97904 17.9815C9.63381 18.3279 9.21318 18.5898 8.75 18.7467V18.7467ZM31.0921 26.9182C30.6093 27.5797 29.0383 28.1875 26.9375 28.1875C24.8367 28.1875 23.2657 27.5797 22.7829 26.9182C22.4596 26.7504 22.1603 26.5401 21.8929 26.2929C21.8814 26.3614 21.8755 26.4306 21.875 26.5C21.875 27.8896 24.0514 28.9375 26.9375 28.9375C29.8236 28.9375 32 27.8896 32 26.5C31.9995 26.4306 31.9936 26.3614 31.9821 26.2929C31.7147 26.5401 31.4154 26.7504 31.0921 26.9182V26.9182Z" fill="#14A800"/>
<path d="M21.1521 20.5434C20.8951 19.6823 20.338 18.9419 19.5818 18.4564C18.8256 17.9709 17.9205 17.7725 17.0306 17.8972C16.1406 18.0219 15.3249 18.4615 14.7313 19.1361C14.1377 19.8108 13.8056 20.6758 13.7952 21.5744C13.7848 22.4729 14.0968 23.3455 14.6746 24.0337C15.2524 24.7219 16.0577 25.1802 16.9445 25.3255C17.8313 25.4708 18.7408 25.2934 19.5081 24.8256C20.2753 24.3577 20.8494 23.6304 21.1262 22.7755C21.1261 22.7668 21.1251 22.7586 21.1251 22.7499C21.1248 22.4676 21.1815 22.188 21.2919 21.9281C21.2971 21.8631 21.3053 21.7989 21.3072 21.733C21.1866 21.463 21.1246 21.1706 21.1251 20.8749C21.1255 20.7639 21.1346 20.6531 21.1521 20.5434ZM17.5626 24.6249C16.9693 24.6249 16.3893 24.449 15.8959 24.1193C15.4026 23.7897 15.018 23.3212 14.791 22.773C14.5639 22.2248 14.5045 21.6216 14.6203 21.0397C14.736 20.4577 15.0217 19.9232 15.4413 19.5036C15.8609 19.084 16.3954 18.7983 16.9774 18.6826C17.5593 18.5668 18.1625 18.6262 18.7107 18.8533C19.2589 19.0803 19.7274 19.4649 20.057 19.9582C20.3867 20.4516 20.5626 21.0316 20.5626 21.6249C20.5617 22.4203 20.2454 23.1828 19.6829 23.7452C19.1205 24.3077 18.358 24.624 17.5626 24.6249V24.6249ZM31.0923 25.0432C30.6094 25.7047 29.0384 26.3124 26.9376 26.3124C24.8369 26.3124 23.2658 25.7047 22.783 25.0432C22.4598 24.8753 22.1604 24.665 21.893 24.4178C21.8816 24.4863 21.8756 24.5555 21.8751 24.6249C21.8751 26.0145 24.0515 27.0624 26.9376 27.0624C29.8237 27.0624 32.0001 26.0145 32.0001 24.6249C31.9997 24.5555 31.9937 24.4863 31.9823 24.4178C31.7148 24.665 31.4155 24.8753 31.0923 25.0432V25.0432Z" fill="#14A800"/>
<path d="M31.0921 23.1683C30.6093 23.8298 29.0383 24.4376 26.9375 24.4376C24.8367 24.4376 23.2657 23.8298 22.7829 23.1683C22.4596 23.0005 22.1603 22.7902 21.8929 22.543C21.8814 22.6114 21.8755 22.6807 21.875 22.7501C21.875 24.1396 24.0514 25.1876 26.9375 25.1876C29.8236 25.1876 32 24.1396 32 22.7501C31.9995 22.6807 31.9936 22.6114 31.9821 22.543C31.7147 22.7902 31.4154 23.0005 31.0921 23.1683V23.1683Z" fill="#14A800"/>
<path d="M31.0921 21.2933C30.6093 21.9548 29.0383 22.5626 26.9375 22.5626C24.8367 22.5626 23.2657 21.9548 22.7829 21.2933C22.4596 21.1255 22.1603 20.9152 21.8929 20.668C21.8814 20.7364 21.8755 20.8057 21.875 20.8751C21.875 22.2646 24.0514 23.3126 26.9375 23.3126C29.8236 23.3126 32 22.2646 32 20.8751C31.9995 20.8057 31.9936 20.7364 31.9821 20.668C31.7147 20.9152 31.4154 21.1255 31.0921 21.2933V21.2933Z" fill="#14A800"/>
<path d="M31.0921 19.4183C30.6093 20.0798 29.0383 20.6876 26.9375 20.6876C24.8367 20.6876 23.2657 20.0798 22.7829 19.4183C22.4596 19.2505 22.1603 19.0402 21.8929 18.793C21.8814 18.8614 21.8755 18.9307 21.875 19.0001C21.875 20.3896 24.0514 21.4376 26.9375 21.4376C29.8236 21.4376 32 20.3896 32 19.0001C31.9995 18.9307 31.9936 18.8614 31.9821 18.793C31.7147 19.0402 31.4154 19.2505 31.0921 19.4183V19.4183Z" fill="#14A800"/>
<path d="M31.0921 17.5432C30.6093 18.2047 29.0383 18.8125 26.9375 18.8125C24.8367 18.8125 23.2657 18.2047 22.7829 17.5432C22.4596 17.3754 22.1603 17.1651 21.8929 16.9179C21.8814 16.9864 21.8755 17.0556 21.875 17.125C21.875 18.5146 24.0514 19.5625 26.9375 19.5625C29.8236 19.5625 32 18.5146 32 17.125C31.9995 17.0556 31.9936 16.9864 31.9821 16.9179C31.7147 17.1651 31.4154 17.3754 31.0921 17.5432V17.5432ZM11.1528 13.1875C10.9634 13.1875 10.7817 13.2627 10.6476 13.3965C10.5135 13.5303 10.4379 13.7118 10.4375 13.9012V15.25H11.1875V13.9375H13.1777C13.0064 14.4369 12.7167 14.8872 12.3332 15.25H13.328C13.6166 14.8546 13.8307 14.4098 13.9597 13.9375H21.576C21.8041 13.6428 22.0808 13.3892 22.3942 13.1875H11.1528ZM31.2848 10.1875H13.5903C13.4009 10.1875 13.2192 10.2627 13.0851 10.3965C12.951 10.5303 12.8754 10.7118 12.875 10.9012V12.4375H13.625V10.9375H15.6194C15.46 11.498 15.1691 12.0123 14.7706 12.4375H15.7655C16.0611 11.9773 16.2759 11.47 16.4009 10.9375H28.4737C28.5801 11.398 28.7525 11.8406 28.9856 12.2517C29.4319 12.3348 29.8709 12.4533 30.2983 12.6062C29.8266 12.229 29.4586 11.5705 29.2556 10.9375H31.25V13.0451C31.3416 13.0983 31.4287 13.1544 31.5136 13.2118C31.5962 13.2678 31.6754 13.3258 31.7513 13.3858C31.8386 13.4548 31.9227 13.5255 32 13.5999V10.9012C31.9996 10.7118 31.9241 10.5303 31.79 10.3965C31.6559 10.2627 31.4742 10.1875 31.2848 10.1875V10.1875Z" fill="#14A800"/>
<path d="M26.9375 12.8125C24.0514 12.8125 21.875 13.8604 21.875 15.25C21.875 16.6396 24.0514 17.6875 26.9375 17.6875C29.8236 17.6875 32 16.6396 32 15.25C32 13.8604 29.8236 12.8125 26.9375 12.8125ZM26.9375 16.9375C24.396 16.9375 22.625 16.0482 22.625 15.25C22.625 14.4518 24.396 13.5625 26.9375 13.5625C29.479 13.5625 31.25 14.4518 31.25 15.25C31.25 16.0482 29.479 16.9375 26.9375 16.9375Z" fill="#14A800"/>
</g>
<defs>
<clipPath id="clip0_118_8081">
<rect width="24" height="24" fill="white" transform="translate(8 8.5)"/>
</clipPath>
</defs>
</svg>
