<svg width="40" height="40" viewBox="0 0 40 40" fill="none" xmlns="http://www.w3.org/2000/svg">
<circle cx="20" cy="20" r="20" fill="#009CF4" fill-opacity="0.05"/>
<path d="M20 8C13.373 8 8 13.373 8 20C8 26.627 13.373 32 20 32C26.627 32 32 26.627 32 20C32 13.373 26.627 8 20 8ZM20 30.5C14.21 30.5 9.5 25.79 9.5 20C9.5 14.21 14.21 9.5 20 9.5C25.79 9.5 30.5 14.21 30.5 20C30.5 25.79 25.79 30.5 20 30.5ZM18.593 16.2035C18.593 15.5944 18.351 15.0103 17.9204 14.5796C17.4897 14.149 16.9056 13.907 16.2965 13.907C15.6874 13.907 15.1033 14.149 14.6726 14.5796C14.242 15.0103 14 15.5944 14 16.2035C14 16.8126 14.242 17.3967 14.6726 17.8274C15.1033 18.258 15.6874 18.5 16.2965 18.5C16.9056 18.5 17.4897 18.258 17.9204 17.8274C18.351 17.3967 18.593 16.8126 18.593 16.2035ZM15.5 16.2035C15.4968 16.0968 15.515 15.9905 15.5536 15.891C15.5923 15.7915 15.6505 15.7007 15.7248 15.6241C15.7992 15.5475 15.8882 15.4866 15.9865 15.4451C16.0848 15.4035 16.1905 15.3821 16.2973 15.3822C16.404 15.3822 16.5097 15.4037 16.608 15.4454C16.7063 15.487 16.7952 15.548 16.8695 15.6247C16.9438 15.7013 17.0019 15.7921 17.0404 15.8917C17.0789 15.9913 17.0971 16.0975 17.0938 16.2043C17.0873 16.4114 17.0005 16.6078 16.8516 16.752C16.7028 16.8962 16.5037 16.9768 16.2965 16.9767C16.0893 16.9766 15.8903 16.8958 15.7416 16.7515C15.5929 16.6072 15.5063 16.4106 15.5 16.2035ZM23.7035 21.407C23.0944 21.407 22.5103 21.649 22.0796 22.0796C21.649 22.5103 21.407 23.0944 21.407 23.7035C21.407 24.3126 21.649 24.8967 22.0796 25.3274C22.5103 25.758 23.0944 26 23.7035 26C24.3126 26 24.8967 25.758 25.3274 25.3274C25.758 24.8967 26 24.3126 26 23.7035C26 23.0944 25.758 22.5103 25.3274 22.0796C24.8967 21.649 24.3126 21.407 23.7035 21.407ZM23.7035 24.5C23.5968 24.5032 23.4905 24.485 23.391 24.4464C23.2915 24.4077 23.2007 24.3495 23.1241 24.2752C23.0475 24.2008 22.9866 24.1118 22.9451 24.0135C22.9035 23.9152 22.8821 23.8095 22.8822 23.7027C22.8822 23.596 22.9037 23.4903 22.9454 23.392C22.987 23.2937 23.048 23.2048 23.1247 23.1305C23.2013 23.0562 23.2921 22.9981 23.3917 22.9596C23.4913 22.9211 23.5975 22.9029 23.7042 22.9062C23.9114 22.9127 24.1078 22.9995 24.252 23.1484C24.3962 23.2972 24.4768 23.4963 24.4767 23.7035C24.4766 23.9107 24.3958 24.1097 24.2515 24.2584C24.1072 24.4071 23.9106 24.4937 23.7035 24.5ZM25.031 14.969C24.8904 14.8284 24.6996 14.7494 24.5007 14.7494C24.3019 14.7494 24.1111 14.8284 23.9705 14.969L14.9705 23.969C14.9008 24.0386 14.8454 24.1213 14.8077 24.2123C14.7699 24.3034 14.7504 24.4009 14.7503 24.4995C14.7502 24.6985 14.8291 24.8894 14.9698 25.0303C15.1104 25.1711 15.3012 25.2503 15.5002 25.2504C15.6992 25.2506 15.8902 25.1716 16.031 25.031L25.031 16.031C25.3235 15.737 25.3235 15.263 25.031 14.969Z" fill="#17A1FA"/>
</svg>
